<!DOCTYPE svg PUBLIC "-//W3C//DTD SVG 1.1//EN" "https://www.w3.org/Graphics/SVG/1.1/DTD/svg11.dtd">
<svg xmlns="http://www.w3.org/2000/svg" class="sfn-workflow-graph" data-testid="graph" role="img" aria-labelledby="polymath-graph-title" width="937" height="1701">
<title id="polymath-graph-title">Workflow Studio State Machine Graph</title>
<g transform="translate(12,12)" class="new-look-graph">
<g class="nodes">
<g class="node-container" transform="translate(389,22)">
<g>
<circle class="sc-bSakgD cljVAC shape" r="22"/>
<text class="sc-hjQCSK crZaOj label">
<tspan xml:space="preserve" text-anchor="middle" alignment-baseline="central">Start</tspan>
</text>
</g>
</g>
<g class="node-container" transform="translate(389,103.5)">
<g class="sc-fmRtwQ eCXjMi node state Task" data-testid="graph-Find Last Run" data-state-id="Find Last Run" data-state-type="Task">
<g class="new-look-state-node ">
<rect x="-120" y="-24.5" width="240" height="49" rx="3" ry="3"/>
<g class="handle" transform="translate(-120,-24.5)">
<path d="M5,16 L5,34 M8,16 L8,34"/>
</g>
<g class="icon" transform="translate(-104,-24)">
<rect fill="var(--color-background-container-header-gnwbip, #fafafa)" x="0.0361026108" y="0.0181291967" width="48" height="48"/>
<line x1="47.5" y1="0.49122807" x2="47.5" y2="47.5" stroke="var(--color-text-home-header-secondary-bkwtrh, #d5dbdb)" stroke-linecap="square"/>
<line x1="0.5" y1="0.49122807" x2="0.5" y2="47.5" stroke="var(--color-text-home-header-secondary-bkwtrh, #d5dbdb)" stroke-linecap="square"/>
<use href="#icon-service-ddb">
<title>DynamoDB</title>
</use>
</g>
<g class="text-lines" transform="translate(-48,-24.5)">
<text transform="translate(0,17)" class="line1">
<tspan xml:space="preserve" text-anchor="start">DynamoDB: GetItem</tspan>
</text>
<text transform="translate(0,35.5)" class="line2 label">
<tspan xml:space="preserve" text-anchor="start">Find Last Run</tspan>
</text>
</g>
</g>
</g>
</g>
<g class="node-container" transform="translate(389,187.5)">
<g class="sc-fmRtwQ eCXjMi node state Choice" data-testid="graph-Last Run State" data-state-id="Last Run State" data-state-type="Choice">
<g class="new-look-state-node ">
<rect x="-120" y="-24.5" width="240" height="49" rx="3" ry="3"/>
<g class="handle" transform="translate(-120,-24.5)">
<path d="M5,16 L5,34 M8,16 L8,34"/>
</g>
<g class="icon" transform="translate(-104,-24)">
<rect fill="var(--color-background-container-header-gnwbip, #fafafa)" x="0.0361026108" y="0.0181291967" width="48" height="48"/>
<line x1="47.5" y1="0.49122807" x2="47.5" y2="47.5" stroke="var(--color-text-home-header-secondary-bkwtrh, #d5dbdb)" stroke-linecap="square"/>
<line x1="0.5" y1="0.49122807" x2="0.5" y2="47.5" stroke="var(--color-text-home-header-secondary-bkwtrh, #d5dbdb)" stroke-linecap="square"/>
<use href="#icon-flow-choice"/>
</g>
<g class="text-lines" transform="translate(-48,-24.5)">
<text transform="translate(0,17)" class="line1">
<tspan xml:space="preserve" text-anchor="start">Choice state</tspan>
</text>
<text transform="translate(0,35.5)" class="line2 label">
<tspan xml:space="preserve" text-anchor="start">Last Run State</tspan>
</text>
</g>
</g>
</g>
</g>
<g class="node-container" transform="translate(120,1573.5)">
<g class="sc-fmRtwQ eCXjMi node state Succeed" data-testid="graph-Job in Progress" data-state-id="Job in Progress" data-state-type="Succeed">
<g class="new-look-state-node ">
<rect x="-120" y="-24.5" width="240" height="49" rx="3" ry="3"/>
<g class="handle" transform="translate(-120,-24.5)">
<path d="M5,16 L5,34 M8,16 L8,34"/>
</g>
<g class="icon" transform="translate(-104,-24)">
<rect fill="var(--color-background-container-header-gnwbip, #fafafa)" x="0.0361026108" y="0.0181291967" width="48" height="48"/>
<line x1="47.5" y1="0.49122807" x2="47.5" y2="47.5" stroke="var(--color-text-home-header-secondary-bkwtrh, #d5dbdb)" stroke-linecap="square"/>
<line x1="0.5" y1="0.49122807" x2="0.5" y2="47.5" stroke="var(--color-text-home-header-secondary-bkwtrh, #d5dbdb)" stroke-linecap="square"/>
<use href="#icon-flow-succeed"/>
</g>
<g class="text-lines" transform="translate(-48,-24.5)">
<text transform="translate(0,17)" class="line1">
<tspan xml:space="preserve" text-anchor="start">Succeed state</tspan>
</text>
<text transform="translate(0,35.5)" class="line2 label">
<tspan xml:space="preserve" text-anchor="start">Job in Progress</tspan>
</text>
</g>
</g>
</g>
</g>
<g class="node-container" transform="translate(488,288)">
<g class="sc-fmRtwQ eCXjMi node state Task" data-testid="graph-Set Run Time" data-state-id="Set Run Time" data-state-type="Task">
<g class="new-look-state-node ">
<rect x="-120" y="-24.5" width="240" height="49" rx="3" ry="3"/>
<g class="handle" transform="translate(-120,-24.5)">
<path d="M5,16 L5,34 M8,16 L8,34"/>
</g>
<g class="icon" transform="translate(-104,-24)">
<rect fill="var(--color-background-container-header-gnwbip, #fafafa)" x="0.0361026108" y="0.0181291967" width="48" height="48"/>
<line x1="47.5" y1="0.49122807" x2="47.5" y2="47.5" stroke="var(--color-text-home-header-secondary-bkwtrh, #d5dbdb)" stroke-linecap="square"/>
<line x1="0.5" y1="0.49122807" x2="0.5" y2="47.5" stroke="var(--color-text-home-header-secondary-bkwtrh, #d5dbdb)" stroke-linecap="square"/>
<use href="#icon-service-ddb">
<title>DynamoDB</title>
</use>
</g>
<g class="text-lines" transform="translate(-48,-24.5)">
<text transform="translate(0,17)" class="line1">
<tspan xml:space="preserve" text-anchor="start">DynamoDB: PutItem</tspan>
</text>
<text transform="translate(0,35.5)" class="line2 label">
<tspan xml:space="preserve" text-anchor="start">Set Run Time</tspan>
</text>
</g>
</g>
</g>
</g>
<g class="node-container" transform="translate(488,372)">
<g class="sc-fmRtwQ eCXjMi node state Task" data-testid="graph-Update Job to Running" data-state-id="Update Job to Running" data-state-type="Task">
<g class="new-look-state-node ">
<rect x="-120" y="-24.5" width="240" height="49" rx="3" ry="3"/>
<g class="handle" transform="translate(-120,-24.5)">
<path d="M5,16 L5,34 M8,16 L8,34"/>
</g>
<g class="icon" transform="translate(-104,-24)">
<rect fill="var(--color-background-container-header-gnwbip, #fafafa)" x="0.0361026108" y="0.0181291967" width="48" height="48"/>
<line x1="47.5" y1="0.49122807" x2="47.5" y2="47.5" stroke="var(--color-text-home-header-secondary-bkwtrh, #d5dbdb)" stroke-linecap="square"/>
<line x1="0.5" y1="0.49122807" x2="0.5" y2="47.5" stroke="var(--color-text-home-header-secondary-bkwtrh, #d5dbdb)" stroke-linecap="square"/>
<use href="#icon-service-ddb">
<title>DynamoDB</title>
</use>
</g>
<g class="text-lines" transform="translate(-48,-24.5)">
<text transform="translate(0,17)" class="line1">
<tspan xml:space="preserve" text-anchor="start">DynamoDB: UpdateItem</tspan>
</text>
<text transform="translate(0,35.5)" class="line2 label">
<tspan xml:space="preserve" text-anchor="start">Update Job to Running</tspan>
</text>
</g>
</g>
</g>
</g>
<g class="node-container" transform="translate(488,456)">
<g class="sc-fmRtwQ eCXjMi node state Task" data-testid="graph-Send SQS Start Export" data-state-id="Send SQS Start Export" data-state-type="Task">
<g class="new-look-state-node ">
<rect x="-120" y="-24.5" width="240" height="49" rx="3" ry="3"/>
<g class="handle" transform="translate(-120,-24.5)">
<path d="M5,16 L5,34 M8,16 L8,34"/>
</g>
<g class="icon" transform="translate(-104,-24)">
<rect fill="var(--color-background-container-header-gnwbip, #fafafa)" x="0.0361026108" y="0.0181291967" width="48" height="48"/>
<line x1="47.5" y1="0.49122807" x2="47.5" y2="47.5" stroke="var(--color-text-home-header-secondary-bkwtrh, #d5dbdb)" stroke-linecap="square"/>
<line x1="0.5" y1="0.49122807" x2="0.5" y2="47.5" stroke="var(--color-text-home-header-secondary-bkwtrh, #d5dbdb)" stroke-linecap="square"/>
<use href="#icon-service-sqs">
<title>Simple Queue Service</title>
</use>
</g>
<g class="text-lines" transform="translate(-48,-24.5)">
<text transform="translate(0,17)" class="line1">
<tspan xml:space="preserve" text-anchor="start">SQS: SendMessage</tspan>
</text>
<text transform="translate(0,35.5)" class="line2 label">
<tspan xml:space="preserve" text-anchor="start">Send SQS Start Export</tspan>
</text>
</g>
</g>
</g>
</g>
<g class="node-container" transform="translate(333,1655)">
<g>
<circle class="sc-bSakgD cljVAC shape" r="22"/>
<text class="sc-hjQCSK crZaOj label">
<tspan xml:space="preserve" text-anchor="middle" alignment-baseline="central">End</tspan>
</text>
</g>
</g>
<g class="node-container" transform="translate(658,930.75)">
<g class="sc-fmRtwQ eCXjMi node state container Map" data-state-id="Map" data-state-type="Map">
<g class="new-look-state-node ">
<g class="bounding-box" transform="translate(0,5)">
<g class="shape new-look-state-node-sub">
<rect rx="3" ry="3" x="-255" y="-398.75" width="510" height="792.5" class="sc-edUIhV hWtPwH"/>
<rect x="-105" y="-354.75" width="210" height="26" class="sc-edUIhV sc-jmnVvD hWtPwH jXjWFd"/>
<svg x="-90" y="-358.25" width="25" height="25" viewBox="0 -8 25 25" xmlns="http://www.w3.org/2000/svg">
<defs>
<path d="M7,0 C7.26521649,0 7.5195704,0.10535684 7.70710678,0.292893219 L12.7071068,5.29289322 C12.8946432,5.4804296 13,5.73478351 13,6 L13,15 C13,15.5522847 12.5522847,16 12,16 L1,16 C0.44771525,16 0,15.5522847 0,15 L0,1 C0,0.44771525 0.44771525,0 1,0 L7,0 Z M5,2 L2,2 L2,14 L11,14 L11,8 L5,8 L5,2 Z M10.586,6 L7,2.415 L7,6 L10.586,6 Z" id="path-1"/>
</defs>
<g id="Symbols" stroke="none" stroke-width="1" fill="none" fill-rule="evenodd">
<g id="pm-icon-/-flow-/-pass-copy" transform="translate(-18.000000, -15.000000)">
<g id="Icon/Symbol/File" transform="translate(18.500000, 15.873955)">
<mask id="mask-2" fill="white">
<use xmlns:xlink="http://www.w3.org/1999/xlink" xlink:href="#path-1"/>
</mask>
<use id="Icon" fill="#687078" xmlns:xlink="http://www.w3.org/1999/xlink" xlink:href="#path-1"/>
</g>
</g>
</g>
<style data-styled="true" data-styled-version="5.3.5">.eCXjMi{cursor:pointer;}/*!sc*/
data-styled.g114[id="sc-fmRtwQ"]{content:"eCXjMi,"}/*!sc*/
.bZTOSH{stroke:#555;background-color:#555;stroke-width:1px;}/*!sc*/
data-styled.g115[id="sc-lkwKjF"]{content:"bZTOSH,"}/*!sc*/
.jQUfbP{stroke-width:0;stroke:none;fill:#f2f3f3;}/*!sc*/
data-styled.g116[id="sc-jmNpzm"]{content:"jQUfbP,"}/*!sc*/
.jYvugd{font-size:10px;line-height:12.5;stroke:none;}/*!sc*/
data-styled.g117[id="sc-dUWWNf"]{content:"jYvugd,"}/*!sc*/
.bqFdyl{fill:var(--color-text-form-secondary-icb4vu,#687078);}/*!sc*/
data-styled.g155[id="sc-jhzXDd"]{content:"bqFdyl,"}/*!sc*/
.crZaOj{font-weight:400;font-size:12px;line-height:16px;font-family:Amazon Ember,Arial,Roboto,Arial,sans-serif;text-shadow:none;fill:var(--color-text-body-default-4colr5,#16191f);}/*!sc*/
data-styled.g156[id="sc-hjQCSK"]{content:"crZaOj,"}/*!sc*/
.cljVAC{fill:#fff9cc;stroke:var(--color-text-form-secondary-icb4vu,#687078);stroke-width:0.6px;}/*!sc*/
data-styled.g157[id="sc-bSakgD"]{content:"cljVAC,"}/*!sc*/
.kUWaWl{fill:#fff9cc;stroke:var(--color-text-form-secondary-icb4vu,#687078);stroke-width:0.6px;}/*!sc*/
data-styled.g158[id="sc-jvLaUc"]{content:"kUWaWl,"}/*!sc*/
.hWtPwH{stroke:var(--color-border-control-default-zx2mvl,#687078);stroke-width:1px;fill:var(--color-background-container-content-v5h5oj,#ffffff);opacity:0.5;}/*!sc*/
.node &gt; .new-look-state-node.has-errors &gt; .bounding-box &gt; .sc-edUIhV{stroke:var(--color-border-status-error-jb9vli,#d13212);fill:var(--color-background-status-error-hrmert,#fdf3f1);}/*!sc*/
.selected &gt; .node &gt; .new-look-state-node &gt; .bounding-box &gt; .sc-edUIhV{stroke:var(--color-border-status-info-lqyesl,#0073bb);fill:var(--color-background-status-info-y7xysq,#f1faff);}/*!sc*/
.selected &gt; .node &gt; .new-look-state-node.has-errors &gt; .bounding-box &gt; .sc-edUIhV{stroke:var(--color-border-status-error-jb9vli,#d13212);fill:#fde0da;}/*!sc*/
data-styled.g159[id="sc-edUIhV"]{content:"hWtPwH,"}/*!sc*/
.jXjWFd{opacity:1;}/*!sc*/
data-styled.g160[id="sc-jmnVvD"]{content:"jXjWFd,"}/*!sc*/
</style>
<style>
.new-look-state-node &gt; rect:first-of-type {
  stroke: #687078;
  stroke-width: 1px;
  fill: #FFFFFF;
}

.new-look-state-node .error-icon circle {
 stroke-linejoin: round;
}

.new-look-state-node .error-icon circle, .new-look-state-node .error-icon path {
 stroke: var(--color-border-status-error-jb9vli, #d13212);
 fill: none;
 stroke-width: 2px;
}

.new-look-state-node.has-errors &gt; rect:first-of-type {
 stroke: var(--color-border-status-error-jb9vli, #d13212);
 fill: var(--color-background-status-error-hrmert, #fdf3f1);
}

.new-look-state-node .handle path {
  stroke: var(--color-border-dropdown-item-hover-jn30h1, #879596);
  stroke-width: 1px;
  fill: none;
}


.new-look-state-node {
  font-weight: 400;
  font-family: Amazon Ember, Arial, Roboto, Arial, sans-serif;
  text-shadow: none;
}

.new-look-state-node .line1 {
  fill: #687078;
  font-size: 12px;
}

.selected.node &gt; .new-look-state-node &gt; rect,
.selected.node &gt; .new-look-state-node &gt; .new-look-state-node &gt; rect,
.selected.node &gt; .new-look-state-node &gt; .bounding-box &gt; .new-look-state-node-sub &gt; rect
 {
  stroke: var(--color-border-status-info-lqyesl, #0073bb);
  fill: var(--color-background-status-info-y7xysq, #f1faff);
  stroke-width: 1px;
}

.new-look-state-node-sub .item-source.not-specified {
  height: 15px;
  color: #687078;
  font-family: "Amazon Ember";
  font-size: 12px;
  letter-spacing: 0;
  line-height: 16px;
  font-weight: 400;
}
.new-look-state-node-sub .item-source .item-source_name{
  font-weight: 600;
}
.new-look-state-node-sub .item-source.not-specified .item-source_name{
  font-weight: 400;
}

.new-look-state-node-sub .item-source.not-specified {
  font-style: italic;
}



.new-look-state-node-sub .item-source
.selected.node &gt; .new-look-state-node.has-errors &gt; rect,
.selected.node &gt; .new-look-state-node.has-errors &gt; .new-look-state-node &gt; rect,
{
 stroke: var(--color-border-status-error-jb9vli, #d13212);
 fill: #fde0da;
}

.new-look-graph .drag-source {
  opacity: 0.2;
}

.new-look-graph .edge, .new-look-graph path.starting-connection {
  stroke-width: 1px;
  stroke: var(--color-text-form-secondary-icb4vu, #687078);
  marker-end: url(#large-arrowhead);
}

.new-look-graph .edge-label {
  cursor: pointer;
}

.new-look-graph .edge-label rect {
  stroke-width: 1px;
  stroke: var(--color-border-control-default-zx2mvl, #687078);
  fill: var(--color-background-container-header-gnwbip, #fafafa);
}

.new-look-graph .edge-label.selected rect {
  stroke: var(--color-border-status-info-lqyesl, #0073bb);
  fill: var(--color-background-status-info-y7xysq, #f1faff);
  stroke-width: 0.6px;
}



.new-look-graph .edge-label .label {
  fill: var(--color-text-form-secondary-icb4vu, #687078);
  font-family: Amazon Ember, Arial, Roboto, Arial, sans-serif;
}

/* centering the shape text */
@-moz-document url-prefix() {
  .new-look-graph .shape + text,
  .new-look-graph .edge-label text {
    transform: translateY(3.5px);
  }
}


svg.sfn-workflow-graph {
  overflow: hidden;
  margin: auto;
  display: block;
  width: 100%;
  height: 100%
}
svg.sfn-workflow-graph .node>.shape {
  stroke: #555555;
  stroke-width: 0.6px;
  fill: #FFFFFF
}
svg.sfn-workflow-graph .node.state.NotYetStarted>.shape, workflow-graph svg.sfn-workflow-graph .node.state.Container>.shape {
  stroke-dasharray: 5 2
}
svg.sfn-workflow-graph .node.state.Failed>.shape, workflow-graph svg.sfn-workflow-graph rect.legend.Failed {
  fill: #DE322F
}
svg.sfn-workflow-graph .node.state.CaughtError>.shape, workflow-graph svg.sfn-workflow-graph rect.legend.CaughtError {
  fill: #FFA500
}
svg.sfn-workflow-graph .node.state.Succeeded>.shape, workflow-graph svg.sfn-workflow-graph rect.legend.Succeeded {
  fill: #2BD62E
}
svg.sfn-workflow-graph .node.state.InProgress>.shape, workflow-graph svg.sfn-workflow-graph rect.legend.InProgress {
  fill: #53c9ed
}
svg.sfn-workflow-graph .node.state.Cancelled>.shape, workflow-graph svg.sfn-workflow-graph rect.legend.Cancelled {
  fill: #dddddd
}
svg.sfn-workflow-graph .node.anchor>.shape {
  fill: #FFDA75
}
svg.sfn-workflow-graph .node.state.hovered:not(.selected):not(.NotYetStarted)>.shape, workflow-graph svg.sfn-workflow-graph .node.selected>.shape {
  stroke: #555555;
  stroke-width: 2px
}
svg.sfn-workflow-graph .node.state.Container.Failed>.shape {
  fill: #EE9592
}
svg.sfn-workflow-graph .node.state.Container.CaughtError>.shape {
  fill: #FFD27F
}
svg.sfn-workflow-graph .node.state.Container.Succeeded>.shape {
  fill: #91EA9A
}
svg.sfn-workflow-graph .node.state.Container.InProgress>.shape {
  fill: #A9E4F7
}
svg.sfn-workflow-graph .node.state.Container.Cancelled>.shape {
  fill: #EEEEEE
}
svg.sfn-workflow-graph marker {
  fill: #555555
}
svg.sfn-workflow-graph path {
  stroke: #555;
  background-color: #555;
  stroke-width: 1px
}
svg.sfn-workflow-graph .node.anchor, workflow-graph svg.sfn-workflow-graph .node.state.NotYetStarted {
  cursor: default
}
svg.sfn-workflow-graph .node.state {
  cursor: pointer
}
svg.sfn-workflow-graph tspan .label {
  font-weight: normal;
  font-size: 12px;
  text-shadow: none
}

.new-look-graph .edge path {
  marker-end: url(#large-arrowhead) !important;
}

.new-look-graph .edge.selected path{
  stroke: var(--color-border-status-info-lqyesl, #0073bb);
  stroke-width: 1.1px;
}

.new-look-graph .edge.dragging-over path, .new-look-graph  g.dragging-over .starting-connection {
  stroke: #5C86FF;
  stroke-width: 2px;
}

.new-look-graph .edge.dragging-over path, .new-look-graph .dragging-over path.starting-connection {
  marker-end: url(#large-highlighted-arrowhead) !important;
}

.new-look-graph .edge.dragging-over .edge-label text {
  fill: #5C86FF;
}

#large-highlighted-arrowhead {
  fill: #5C86FF;
}

#large-highlighted-arrowhead path {
  stroke: none;
}

.new-look-graph .edge.drop-not-supported path, g.drop-not-supported .starting-connection {
  stroke: red;
}

.new-look-graph .edge.drop-not-supported .edge-label text {
  fill: red;
}

.new-look-graph .edge.drop-not-supported path {
  marker-end: url(#large-error-arrowhead) !important;
}

#large-error-arrowhead {
  fill: red;
}


.node.Placeholder.dragging-over rect {
  stroke: var(--color-border-status-info-lqyesl, #0073bb);
  fill: var(--color-background-status-info-y7xysq, #f1faff);
  stroke-width: 2px;
}

.node.Placeholder.dragging-over .label {
  fill: var(--color-text-status-info-ljzs7r, #0073bb);
}

g.Placeholder rect {
  stroke-dasharray: 5 4;
  stroke: var(--color-border-dropdown-item-hover-jn30h1, #879596);
  fill: var(--color-background-control-default-3975zi, #ffffff);
  stroke-width: 1px;
}

g.Placeholder .label {
  font-style: italic;
  fill: var(--color-text-input-placeholder-j38kg2, #687078);
}

.node.Placeholder.drop-not-supported rect {
  stroke: red;
}

.node.Placeholder.drop-not-supported .label {
  fill: red;
}
</style>
<style>.line2 { font-size: 14px }</style>
</svg>
<text x="-65" y="-337.75" class="line1">
<tspan class="item-source" xml:space="preserve" text-anchor="start">
<tspan>Item source</tspan>
<tspan class="item-source_name">
<tspan>: $.manifest</tspan>
</tspan>
</tspan>
</text>
</g>
<g class="content" transform="translate(-255,-398.75)">
<g class="branch" transform="translate(20,124)">
<g transform="">
<g class="nodes">
<g class="node-container" transform="translate(217.5,24.5)">
<g class="sc-fmRtwQ eCXjMi node state Task" data-testid="graph-Lambda Invoke" data-state-id="Lambda Invoke" data-state-type="Task">
<g class="new-look-state-node ">
<rect x="-120" y="-24.5" width="240" height="49" rx="3" ry="3"/>
<g class="handle" transform="translate(-120,-24.5)">
<path d="M5,16 L5,34 M8,16 L8,34"/>
</g>
<g class="icon" transform="translate(-104,-24)">
<rect fill="var(--color-background-container-header-gnwbip, #fafafa)" x="0.0361026108" y="0.0181291967" width="48" height="48"/>
<line x1="47.5" y1="0.49122807" x2="47.5" y2="47.5" stroke="var(--color-text-home-header-secondary-bkwtrh, #d5dbdb)" stroke-linecap="square"/>
<line x1="0.5" y1="0.49122807" x2="0.5" y2="47.5" stroke="var(--color-text-home-header-secondary-bkwtrh, #d5dbdb)" stroke-linecap="square"/>
<use href="#icon-service-lam">
<title>Lambda</title>
</use>
</g>
<g class="text-lines" transform="translate(-48,-24.5)">
<text transform="translate(0,17)" class="line1">
<tspan xml:space="preserve" text-anchor="start">Lambda: Invoke</tspan>
</text>
<text transform="translate(0,35.5)" class="line2 label">
<tspan xml:space="preserve" text-anchor="start">Lambda Invoke</tspan>
</text>
</g>
</g>
</g>
</g>
<g class="node-container" transform="translate(330,228.5)">
<g class="sc-fmRtwQ eCXjMi node state container Map" data-state-id="Internal Map" data-state-type="Map">
<g class="new-look-state-node ">
<g class="bounding-box" transform="translate(0,5)">
<g class="shape new-look-state-node-sub">
<rect rx="3" ry="3" x="-140" y="-144.5" width="280" height="284" class="sc-edUIhV hWtPwH"/>
<rect x="-105" y="-100.5" width="210" height="26" class="sc-edUIhV sc-jmnVvD hWtPwH jXjWFd"/>
<svg x="-90" y="-104" width="25" height="25" viewBox="0 -8 25 25" xmlns="http://www.w3.org/2000/svg">
<g id="Symbols" stroke="none" stroke-width="1" fill="none" fill-rule="evenodd" opacity="0.867687044">
<g id="ONE-MAP---graph---inline-map" transform="translate(-55.000000, -217.000000)" fill="#687078" fill-rule="nonzero">
<g id="Group-15" transform="translate(36.000000, 213.000000)">
<g id="script" transform="translate(19.000000, 4.000000)">
<path d="M11.60121,15.4462891 C12.5601274,15.4462891 13.2010167,15.2896753 13.5238779,14.9764478 C13.8467393,14.6632203 14.0081699,14.0388817 14.0081699,13.1034319 L14.0081699,12.7383526 C14.0081699,12.1034319 14.1135348,10.6632203 14.3242646,10.4177176 C14.5349944,10.172215 14.9129549,10.0494637 15.4581458,10.0494637 L15.8177397,10.0494637 L15.8177397,6.83676525 L15.4581458,6.83676525 C14.9129549,6.83676525 14.5349944,6.71507213 14.3242646,6.47168589 C14.1135348,6.22829964 14.0081699,4.7870298 14.0081699,4.14787636 L14.0081699,3.782797 C14.0081699,2.84734726 13.8467393,2.22406684 13.5238779,1.91295573 C13.2010167,1.60184462 12.5601274,1.44628906 11.60121,1.44628906 L9.8177397,1.44628906 L9.8177397,3.65263827 L10.519528,3.65263827 C10.9255213,3.65263827 11.1971501,3.74364356 11.3344144,3.92565414 C11.4716788,4.10766472 11.540311,5.49708271 11.540311,6.09390811 L11.540311,6.42089224 C11.540311,7.11930494 11.6340761,7.61031023 11.8216063,7.89390811 C12.0091365,8.17750599 12.3464975,8.35951658 12.8336895,8.43993986 C12.3503642,8.52882875 12.0139698,8.71718853 11.8245063,9.00501922 C11.6350428,9.29284991 11.540311,9.7838552 11.540311,10.4780351 L11.540311,10.7796224 C11.540311,11.3849134 11.4707122,12.7785642 11.3315144,12.9605748 C11.1923168,13.1425854 10.9216547,13.2335906 10.519528,13.2335906 L9.8177397,13.2335906 L9.8177397,15.4462891 L11.60121,15.4462891 Z" id="}"/>
<path d="M3.03295652,15.4462891 C3.99187387,15.4462891 4.63276319,15.2896753 4.95562448,14.9764478 C5.27848577,14.6632203 5.43991641,14.0388817 5.43991641,13.1034319 L5.43991641,12.7383526 C5.43991641,12.1034319 5.54528132,10.6632203 5.75601114,10.4177176 C5.96674096,10.172215 6.34470133,10.0494637 6.88989225,10.0494637 L7.24948625,10.0494637 L7.24948625,6.83676525 L6.88989225,6.83676525 C6.34470133,6.83676525 5.96674096,6.71507213 5.75601114,6.47168589 C5.54528132,6.22829964 5.43991641,4.7870298 5.43991641,4.14787636 L5.43991641,3.782797 C5.43991641,2.84734726 5.27848577,2.22406684 4.95562448,1.91295573 C4.63276319,1.60184462 3.99187387,1.44628906 3.03295652,1.44628906 L1.24948625,1.44628906 L1.24948625,3.65263827 L1.95127455,3.65263827 C2.35726778,3.65263827 2.62889659,3.74364356 2.76616097,3.92565414 C2.90342535,4.10766472 2.97205754,4.49708271 2.97205754,5.09390811 L2.97205754,5.42089224 C2.97205754,6.11930494 3.06582265,7.61031023 3.25335285,7.89390811 C3.44088306,8.17750599 3.7782441,8.35951658 4.26543598,8.43993986 C3.7821107,8.52882875 3.44571631,8.71718853 3.25625281,9.00501922 C3.0667893,9.29284991 2.97205754,9.7838552 2.97205754,10.4780351 L2.97205754,10.7796224 C2.97205754,11.3849134 2.9024587,12.7785642 2.76326102,12.9605748 C2.62406334,13.1425854 2.35340119,13.2335906 1.95127455,13.2335906 L1.24948625,13.2335906 L1.24948625,15.4462891 L3.03295652,15.4462891 Z" id="}-copy" transform="translate(4.249486, 8.446289) scale(-1, 1) translate(-4.249486, -8.446289) "/>
</g>
</g>
</g>
</g>
</svg>
<text x="-65" y="-83.5" class="line1">
<tspan class="item-source" xml:space="preserve" text-anchor="start">
<tspan>Item source</tspan>
<tspan class="item-source_name">
<tspan>: JSON Payload</tspan>
</tspan>
</tspan>
</text>
</g>
<g class="content" transform="translate(-140,-144.5)">
<g class="branch" transform="translate(20,124)">
<g transform="">
<g class="nodes">
<g class="node-container" transform="translate(120,24.5)">
<g class="sc-fmRtwQ eCXjMi node state Task" data-testid="graph-EventBridge PutEvents" data-state-id="EventBridge PutEvents" data-state-type="Task">
<g class="new-look-state-node ">
<rect x="-120" y="-24.5" width="240" height="49" rx="3" ry="3"/>
<g class="handle" transform="translate(-120,-24.5)">
<path d="M5,16 L5,34 M8,16 L8,34"/>
</g>
<g class="icon" transform="translate(-104,-24)">
<rect fill="var(--color-background-container-header-gnwbip, #fafafa)" x="0.0361026108" y="0.0181291967" width="48" height="48"/>
<line x1="47.5" y1="0.49122807" x2="47.5" y2="47.5" stroke="var(--color-text-home-header-secondary-bkwtrh, #d5dbdb)" stroke-linecap="square"/>
<line x1="0.5" y1="0.49122807" x2="0.5" y2="47.5" stroke="var(--color-text-home-header-secondary-bkwtrh, #d5dbdb)" stroke-linecap="square"/>
<use href="#icon-service-events">
<title>Amazon EventBridge</title>
</use>
</g>
<g class="text-lines" transform="translate(-48,-24.5)">
<text transform="translate(0,17)" class="line1">
<tspan xml:space="preserve" text-anchor="start">EventBridge: PutEvents</tspan>
</text>
<text transform="translate(0,35.5)" class="line2 label">
<tspan xml:space="preserve" text-anchor="start">EventBridge PutEvents</tspan>
</text>
</g>
</g>
</g>
</g>
<g class="node-container" transform="translate(120,92)">
<g>
<circle class="sc-jvLaUc kUWaWl shape" r="8"/>
</g>
</g>
</g>
<g class="edges">
<g class="sc-lkwKjF bZTOSH edge">
<path id="state-EventBridge PutEvents:end:normal" d="M120,49L120,51.916666666666664C120,54.833333333333336,120,60.666666666666664,120,66.5C120,72.33333333333333,120,78.16666666666667,120,81.08333333333333L120,84" marker-end="url(#arrowhead)" fill="none"/>
</g>
</g>
</g>
</g>
<g class="sc-lkwKjF bZTOSH">
<path id="Internal Map-EventBridge PutEvents" class="path starting-connection" d="M140,69L140,73.58333333333333C140,78.16666666666667,140,87.33333333333333,140,91.91666666666667C140,96.5,140,96.5,140,101.08333333333333C140,105.66666666666667,140,114.83333333333333,140,119.41666666666667L140,124" fill="none"/>
</g>
</g>
</g>
<g class="new-look-state-node ">
<rect x="-120" y="-144.5" width="240" height="49" rx="3" ry="3"/>
<g class="handle" transform="translate(-120,-144.5)">
<path d="M5,16 L5,34 M8,16 L8,34"/>
</g>
<g class="icon" transform="translate(-104,-144)">
<rect fill="var(--color-background-container-header-gnwbip, #fafafa)" x="0.0361026108" y="0.0181291967" width="48" height="48"/>
<line x1="47.5" y1="0.49122807" x2="47.5" y2="47.5" stroke="var(--color-text-home-header-secondary-bkwtrh, #d5dbdb)" stroke-linecap="square"/>
<line x1="0.5" y1="0.49122807" x2="0.5" y2="47.5" stroke="var(--color-text-home-header-secondary-bkwtrh, #d5dbdb)" stroke-linecap="square"/>
<use href="#icon-flow-map"/>
</g>
<g class="text-lines" transform="translate(-48,-144.5)">
<text transform="translate(0,17)" class="line1">
<tspan xml:space="preserve" text-anchor="start">Map state</tspan>
</text>
<text transform="translate(0,35.5)" class="line2 label">
<tspan xml:space="preserve" text-anchor="start">Internal Map</tspan>
</text>
</g>
</g>
</g>
</g>
</g>
<g class="node-container" transform="translate(120,449)">
<g class="sc-fmRtwQ eCXjMi node state Task" data-testid="graph-Set Failed Internal Map" data-state-id="Set Failed Internal Map" data-state-type="Task">
<g class="new-look-state-node ">
<rect x="-120" y="-24.5" width="240" height="49" rx="3" ry="3"/>
<g class="handle" transform="translate(-120,-24.5)">
<path d="M5,16 L5,34 M8,16 L8,34"/>
</g>
<g class="icon" transform="translate(-104,-24)">
<rect fill="var(--color-background-container-header-gnwbip, #fafafa)" x="0.0361026108" y="0.0181291967" width="48" height="48"/>
<line x1="47.5" y1="0.49122807" x2="47.5" y2="47.5" stroke="var(--color-text-home-header-secondary-bkwtrh, #d5dbdb)" stroke-linecap="square"/>
<line x1="0.5" y1="0.49122807" x2="0.5" y2="47.5" stroke="var(--color-text-home-header-secondary-bkwtrh, #d5dbdb)" stroke-linecap="square"/>
<use href="#icon-service-ddb">
<title>DynamoDB</title>
</use>
</g>
<g class="text-lines" transform="translate(-48,-24.5)">
<text transform="translate(0,17)" class="line1">
<tspan xml:space="preserve" text-anchor="start">DynamoDB: UpdateItem</tspan>
</text>
<text transform="translate(0,35.5)" class="line2 label">
<tspan xml:space="preserve" text-anchor="start">Set Failed Internal Map</tspan>
</text>
</g>
</g>
</g>
</g>
<g class="node-container" transform="translate(120,533)">
<g class="sc-fmRtwQ eCXjMi node state Fail" data-testid="graph-Fail in Map" data-state-id="Fail in Map" data-state-type="Fail">
<g class="new-look-state-node ">
<rect x="-120" y="-24.5" width="240" height="49" rx="3" ry="3"/>
<g class="handle" transform="translate(-120,-24.5)">
<path d="M5,16 L5,34 M8,16 L8,34"/>
</g>
<g class="icon" transform="translate(-104,-24)">
<rect fill="var(--color-background-container-header-gnwbip, #fafafa)" x="0.0361026108" y="0.0181291967" width="48" height="48"/>
<line x1="47.5" y1="0.49122807" x2="47.5" y2="47.5" stroke="var(--color-text-home-header-secondary-bkwtrh, #d5dbdb)" stroke-linecap="square"/>
<line x1="0.5" y1="0.49122807" x2="0.5" y2="47.5" stroke="var(--color-text-home-header-secondary-bkwtrh, #d5dbdb)" stroke-linecap="square"/>
<use href="#icon-flow-fail"/>
</g>
<g class="text-lines" transform="translate(-48,-24.5)">
<text transform="translate(0,17)" class="line1">
<tspan xml:space="preserve" text-anchor="start">Fail state</tspan>
</text>
<text transform="translate(0,35.5)" class="line2 label">
<tspan xml:space="preserve" text-anchor="start">Fail in Map</tspan>
</text>
</g>
</g>
</g>
</g>
<g class="node-container" transform="translate(217.5,600.5)">
<g>
<circle class="sc-jvLaUc kUWaWl shape" r="8"/>
</g>
</g>
</g>
<g class="edges">
<g class="sc-lkwKjF bZTOSH edge">
<path id="state-Lambda Invoke:state-Internal Map:normal" d="M283.125,49L290.9375,51.916666666666664C298.75,54.833333333333336,314.375,60.666666666666664,322.1875,66.5C330,72.33333333333333,330,78.16666666666667,330,81.08333333333333L330,84" marker-end="url(#arrowhead)" fill="none"/>
</g>
<g class="sc-lkwKjF bZTOSH edge">
<path id="state-Lambda Invoke:state-Set Failed Internal Map:catch:0" d="M151.875,49L144.0625,51.916666666666664C136.25,54.833333333333336,120.625,60.666666666666664,112.8125,90.58333333333333C105,120.5,105,174.5,105,229.875C105,285.25,105,342,106.28109452736318,374.6666666666667C107.56218905472637,407.3333333333333,110.12437810945273,415.9166666666667,111.40547263681593,420.2083333333333L112.68656716417911,424.5" marker-end="url(#arrowhead)" fill="none"/>
<g data-testid="graph-Lambda Invoke-0" class="edge-label" transform="translate(112.8125,90.58333333333333)">
<rect x="-25" y="-8.25" width="50" height="16.5" class="sc-jmNpzm jQUfbP"/>
<text class="sc-dUWWNf jYvugd label">
<tspan xml:space="preserve" text-anchor="middle" alignment-baseline="central">Catch #1</tspan>
<title>Catch #1</title>
</text>
</g>
</g>
<g class="sc-lkwKjF bZTOSH edge">
<path id="state-Set Failed Internal Map:state-Fail in Map:normal" d="M120,473.5L120,476.4166666666667C120,479.3333333333333,120,485.1666666666667,120,491C120,496.8333333333333,120,502.6666666666667,120,505.5833333333333L120,508.5" marker-end="url(#arrowhead)" fill="none"/>
</g>
<g class="sc-lkwKjF bZTOSH edge">
<path id="state-Fail in Map:end:normal" d="M120,557.5L120,560.4166666666666C120,563.3333333333334,120,569.1666666666666,134.96005463642516,575.9959630074753C149.92010927285034,582.8252593482839,179.84021854570065,590.6505186965679,194.8002731821258,594.5631483707099L209.76032781855096,598.4757780448518" marker-end="url(#arrowhead)" fill="none"/>
</g>
<g class="sc-lkwKjF bZTOSH edge">
<path id="state-Internal Map:end:normal" d="M363.9500734214391,373L364.9583945178659,377.2916666666667C365.96671561429275,381.5833333333333,367.9833578071464,390.1666666666667,368.99167890357313,402.8333333333333C370,415.5,370,432.25,370,447.625C370,463,370,477,370,491C370,505,370,519,370,533C370,547,370,561,345.8984085128938,572.0301021830899C321.79681702578756,583.0602043661797,273.5936340515751,591.1204087323596,249.4920425644689,595.1505109154494L225.39045107736268,599.1806130985393" marker-end="url(#arrowhead)" fill="none"/>
</g>
<g class="sc-lkwKjF bZTOSH edge">
<path id="state-Internal Map:state-Set Failed Internal Map:catch:0" d="M247.24669603524228,373L244.7889133627019,377.2916666666667C242.33113069016153,381.5833333333333,237.41556534508075,390.1666666666667,225.34957371731647,398.75C213.28358208955225,407.3333333333333,194.06716417910448,415.9166666666667,184.4589552238806,420.2083333333333L174.8507462686567,424.5" marker-end="url(#arrowhead)" fill="none"/>
<g data-testid="graph-Internal Map-0" class="edge-label" transform="translate(225.34957371731647,398.75)">
<rect x="-25" y="-8.25" width="50" height="16.5" class="sc-jmNpzm jQUfbP"/>
<text class="sc-dUWWNf jYvugd label">
<tspan xml:space="preserve" text-anchor="middle" alignment-baseline="central">Catch #1</tspan>
<title>Catch #1</title>
</text>
</g>
</g>
</g>
</g>
</g>
<g class="sc-lkwKjF bZTOSH">
<path id="Map-Lambda Invoke" class="path starting-connection" d="M255,69L255,73.58333333333333C255,78.16666666666667,255,87.33333333333333,252.08333333333334,91.91666666666667C249.16666666666666,96.5,243.33333333333334,96.5,240.41666666666666,101.08333333333333C237.5,105.66666666666667,237.5,114.83333333333333,237.5,119.41666666666667L237.5,124" fill="none"/>
</g>
</g>
</g>
<g class="new-look-state-node ">
<rect x="-120" y="-398.75" width="240" height="49" rx="3" ry="3"/>
<g class="handle" transform="translate(-120,-398.75)">
<path d="M5,16 L5,34 M8,16 L8,34"/>
</g>
<g class="icon" transform="translate(-104,-398.25)">
<rect fill="var(--color-background-container-header-gnwbip, #fafafa)" x="0.0361026108" y="0.0181291967" width="48" height="48"/>
<line x1="47.5" y1="0.49122807" x2="47.5" y2="47.5" stroke="var(--color-text-home-header-secondary-bkwtrh, #d5dbdb)" stroke-linecap="square"/>
<line x1="0.5" y1="0.49122807" x2="0.5" y2="47.5" stroke="var(--color-text-home-header-secondary-bkwtrh, #d5dbdb)" stroke-linecap="square"/>
<use href="#icon-flow-s3-json-file"/>
</g>
<g class="text-lines" transform="translate(-48,-398.75)">
<text transform="translate(0,17)" class="line1">
<tspan xml:space="preserve" text-anchor="start">Map: JSON file</tspan>
</text>
<text transform="translate(0,35.5)" class="line2 label">
<tspan xml:space="preserve" text-anchor="start">Map</tspan>
</text>
</g>
</g>
</g>
</g>
</g>
<g class="node-container" transform="translate(333,1405.5)">
<g class="sc-fmRtwQ eCXjMi node state Task" data-testid="graph-Set Failed" data-state-id="Set Failed" data-state-type="Task">
<g class="new-look-state-node ">
<rect x="-120" y="-24.5" width="240" height="49" rx="3" ry="3"/>
<g class="handle" transform="translate(-120,-24.5)">
<path d="M5,16 L5,34 M8,16 L8,34"/>
</g>
<g class="icon" transform="translate(-104,-24)">
<rect fill="var(--color-background-container-header-gnwbip, #fafafa)" x="0.0361026108" y="0.0181291967" width="48" height="48"/>
<line x1="47.5" y1="0.49122807" x2="47.5" y2="47.5" stroke="var(--color-text-home-header-secondary-bkwtrh, #d5dbdb)" stroke-linecap="square"/>
<line x1="0.5" y1="0.49122807" x2="0.5" y2="47.5" stroke="var(--color-text-home-header-secondary-bkwtrh, #d5dbdb)" stroke-linecap="square"/>
<use href="#icon-service-ddb">
<title>DynamoDB</title>
</use>
</g>
<g class="text-lines" transform="translate(-48,-24.5)">
<text transform="translate(0,17)" class="line1">
<tspan xml:space="preserve" text-anchor="start">DynamoDB: UpdateItem</tspan>
</text>
<text transform="translate(0,35.5)" class="line2 label">
<tspan xml:space="preserve" text-anchor="start">Set Failed</tspan>
</text>
</g>
</g>
</g>
</g>
<g class="node-container" transform="translate(333,1489.5)">
<g class="sc-fmRtwQ eCXjMi node state Fail" data-testid="graph-Fail" data-state-id="Fail" data-state-type="Fail">
<g class="new-look-state-node ">
<rect x="-120" y="-24.5" width="240" height="49" rx="3" ry="3"/>
<g class="handle" transform="translate(-120,-24.5)">
<path d="M5,16 L5,34 M8,16 L8,34"/>
</g>
<g class="icon" transform="translate(-104,-24)">
<rect fill="var(--color-background-container-header-gnwbip, #fafafa)" x="0.0361026108" y="0.0181291967" width="48" height="48"/>
<line x1="47.5" y1="0.49122807" x2="47.5" y2="47.5" stroke="var(--color-text-home-header-secondary-bkwtrh, #d5dbdb)" stroke-linecap="square"/>
<line x1="0.5" y1="0.49122807" x2="0.5" y2="47.5" stroke="var(--color-text-home-header-secondary-bkwtrh, #d5dbdb)" stroke-linecap="square"/>
<use href="#icon-flow-fail"/>
</g>
<g class="text-lines" transform="translate(-48,-24.5)">
<text transform="translate(0,17)" class="line1">
<tspan xml:space="preserve" text-anchor="start">Fail state</tspan>
</text>
<text transform="translate(0,35.5)" class="line2 label">
<tspan xml:space="preserve" text-anchor="start">Fail</tspan>
</text>
</g>
</g>
</g>
</g>
<g class="node-container" transform="translate(698,1405.5)">
<g class="sc-fmRtwQ eCXjMi node state Task" data-testid="graph-Get Triggered Time" data-state-id="Get Triggered Time" data-state-type="Task">
<g class="new-look-state-node ">
<rect x="-120" y="-24.5" width="240" height="49" rx="3" ry="3"/>
<g class="handle" transform="translate(-120,-24.5)">
<path d="M5,16 L5,34 M8,16 L8,34"/>
</g>
<g class="icon" transform="translate(-104,-24)">
<rect fill="var(--color-background-container-header-gnwbip, #fafafa)" x="0.0361026108" y="0.0181291967" width="48" height="48"/>
<line x1="47.5" y1="0.49122807" x2="47.5" y2="47.5" stroke="var(--color-text-home-header-secondary-bkwtrh, #d5dbdb)" stroke-linecap="square"/>
<line x1="0.5" y1="0.49122807" x2="0.5" y2="47.5" stroke="var(--color-text-home-header-secondary-bkwtrh, #d5dbdb)" stroke-linecap="square"/>
<use href="#icon-service-ddb">
<title>DynamoDB</title>
</use>
</g>
<g class="text-lines" transform="translate(-48,-24.5)">
<text transform="translate(0,17)" class="line1">
<tspan xml:space="preserve" text-anchor="start">DynamoDB: GetItem</tspan>
</text>
<text transform="translate(0,35.5)" class="line2 label">
<tspan xml:space="preserve" text-anchor="start">Get Triggered Time</tspan>
</text>
</g>
</g>
</g>
</g>
<g class="node-container" transform="translate(698,1489.5)">
<g class="sc-fmRtwQ eCXjMi node state Task" data-testid="graph-Complete Job" data-state-id="Complete Job" data-state-type="Task">
<g class="new-look-state-node ">
<rect x="-120" y="-24.5" width="240" height="49" rx="3" ry="3"/>
<g class="handle" transform="translate(-120,-24.5)">
<path d="M5,16 L5,34 M8,16 L8,34"/>
</g>
<g class="icon" transform="translate(-104,-24)">
<rect fill="var(--color-background-container-header-gnwbip, #fafafa)" x="0.0361026108" y="0.0181291967" width="48" height="48"/>
<line x1="47.5" y1="0.49122807" x2="47.5" y2="47.5" stroke="var(--color-text-home-header-secondary-bkwtrh, #d5dbdb)" stroke-linecap="square"/>
<line x1="0.5" y1="0.49122807" x2="0.5" y2="47.5" stroke="var(--color-text-home-header-secondary-bkwtrh, #d5dbdb)" stroke-linecap="square"/>
<use href="#icon-service-ddb">
<title>DynamoDB</title>
</use>
</g>
<g class="text-lines" transform="translate(-48,-24.5)">
<text transform="translate(0,17)" class="line1">
<tspan xml:space="preserve" text-anchor="start">DynamoDB: UpdateItem</tspan>
</text>
<text transform="translate(0,35.5)" class="line2 label">
<tspan xml:space="preserve" text-anchor="start">Complete Job</tspan>
</text>
</g>
</g>
</g>
</g>
<g class="node-container" transform="translate(698,1573.5)">
<g class="sc-fmRtwQ eCXjMi node state Succeed" data-testid="graph-Export Completed" data-state-id="Export Completed" data-state-type="Succeed">
<g class="new-look-state-node ">
<rect x="-120" y="-24.5" width="240" height="49" rx="3" ry="3"/>
<g class="handle" transform="translate(-120,-24.5)">
<path d="M5,16 L5,34 M8,16 L8,34"/>
</g>
<g class="icon" transform="translate(-104,-24)">
<rect fill="var(--color-background-container-header-gnwbip, #fafafa)" x="0.0361026108" y="0.0181291967" width="48" height="48"/>
<line x1="47.5" y1="0.49122807" x2="47.5" y2="47.5" stroke="var(--color-text-home-header-secondary-bkwtrh, #d5dbdb)" stroke-linecap="square"/>
<line x1="0.5" y1="0.49122807" x2="0.5" y2="47.5" stroke="var(--color-text-home-header-secondary-bkwtrh, #d5dbdb)" stroke-linecap="square"/>
<use href="#icon-flow-succeed"/>
</g>
<g class="text-lines" transform="translate(-48,-24.5)">
<text transform="translate(0,17)" class="line1">
<tspan xml:space="preserve" text-anchor="start">Succeed state</tspan>
</text>
<text transform="translate(0,35.5)" class="line2 label">
<tspan xml:space="preserve" text-anchor="start">Export Completed</tspan>
</text>
</g>
</g>
</g>
</g>
</g>
<g class="edges">
<g class="sc-lkwKjF bZTOSH edge">
<path id="state-Find Last Run:state-Last Run State:normal" d="M389,128L389,130.91666666666666C389,133.83333333333334,389,139.66666666666666,389,145.5C389,151.33333333333334,389,157.16666666666666,389,160.08333333333334L389,163" marker-end="url(#arrowhead)" fill="none"/>
</g>
<g class="sc-lkwKjF bZTOSH edge">
<path id="start:state-Find Last Run" d="M389,44L389,46.916666666666664C389,49.833333333333336,389,55.666666666666664,389,61.5C389,67.33333333333333,389,73.16666666666667,389,76.08333333333333L389,79" marker-end="url(#arrowhead)" fill="none"/>
</g>
<g class="sc-lkwKjF bZTOSH edge">
<path id="state-Last Run State:state-Job in Progress:choiceRule:0" d="M269,209.9163568773234L244.16666666666666,214.55529739776952C219.33333333333334,219.19423791821563,169.66666666666666,228.4721189591078,144.83333333333334,241.4860594795539C120,254.5,120,271.25,120,286.625C120,302,120,316,120,330C120,344,120,358,120,372C120,386,120,400,120,414C120,428,120,442,120,457.375C120,472.75,120,489.5,120,568.625C120,647.75,120,789.25,120,930.75C120,1072.25,120,1213.75,120,1292.875C120,1372,120,1388.75,120,1404.125C120,1419.5,120,1433.5,120,1447.5C120,1461.5,120,1475.5,120,1489.5C120,1503.5,120,1517.5,120,1527.4166666666667C120,1537.3333333333333,120,1543.1666666666667,120,1546.0833333333333L120,1549" marker-end="url(#arrowhead)" fill="none"/>
<g data-testid="graph-Last Run State-0" class="edge-label" transform="translate(144.83333333333334,241.4860594795539)">
<rect x="-84" y="-8.25" width="168" height="16.5" class="sc-jmNpzm jQUfbP"/>
<text class="sc-dUWWNf jYvugd label">
<tspan xml:space="preserve" text-anchor="middle" alignment-baseline="central">$.context.runStatus == "RUNNING"</tspan>
<title>$.context.runStatus == "RUNNING"</title>
</text>
</g>
</g>
<g class="sc-lkwKjF bZTOSH edge">
<path id="state-Last Run State:state-Set Run Time:choiceDefault" d="M437.2686567164179,212L445.7238805970149,216.29166666666666C454.17910447761193,220.58333333333334,471.08955223880594,229.16666666666666,479.54477611940297,237.75C488,246.33333333333334,488,254.91666666666666,488,259.2083333333333L488,263.5" marker-end="url(#arrowhead)" fill="none"/>
<g data-testid="graph-Last Run State-Default" class="edge-label" transform="translate(479.54477611940297,237.75)">
<rect x="-22" y="-8.25" width="44" height="16.5" class="sc-jmNpzm jQUfbP"/>
<text class="sc-dUWWNf jYvugd label">
<tspan xml:space="preserve" text-anchor="middle" alignment-baseline="central">Default</tspan>
<title>Default</title>
</text>
</g>
</g>
<g class="sc-lkwKjF bZTOSH edge">
<path id="state-Set Run Time:state-Update Job to Running:normal" d="M488,312.5L488,315.4166666666667C488,318.3333333333333,488,324.1666666666667,488,330C488,335.8333333333333,488,341.6666666666667,488,344.5833333333333L488,347.5" marker-end="url(#arrowhead)" fill="none"/>
</g>
<g class="sc-lkwKjF bZTOSH edge">
<path id="state-Update Job to Running:state-Send SQS Start Export:normal" d="M488,396.5L488,399.4166666666667C488,402.3333333333333,488,408.1666666666667,488,414C488,419.8333333333333,488,425.6666666666667,488,428.5833333333333L488,431.5" marker-end="url(#arrowhead)" fill="none"/>
</g>
<g class="sc-lkwKjF bZTOSH edge">
<path id="state-Job in Progress:end:normal" d="M120,1598L120,1600.9166666666667C120,1603.8333333333333,120,1609.6666666666667,151.8948011232593,1618.498096921919C183.7896022465186,1627.3295271771713,247.57920449303717,1639.1590543543425,279.47400561629644,1645.0738179429281L311.36880673955574,1650.9885815315138" marker-end="url(#arrowhead)" fill="none"/>
</g>
<g class="sc-lkwKjF bZTOSH edge">
<path id="state-Send SQS Start Export:state-Map:normal" d="M570.8855721393035,480.5L585.4046434494195,484.7916666666667C599.9237147595356,489.0833333333333,628.9618573797678,497.6666666666667,643.4809286898839,506.25C658,514.8333333333334,658,523.4166666666666,658,527.7083333333334L658,532" marker-end="url(#arrowhead)" fill="none"/>
</g>
<g class="sc-lkwKjF bZTOSH edge">
<path id="state-Send SQS Start Export:state-Set Failed:catch:0" d="M405.11442786069654,480.5L390.59535655058045,484.7916666666667C376.07628524046436,489.0833333333333,347.03814262023224,497.6666666666667,332.5190713101161,572.7083333333334C318,647.75,318,789.25,318,930.75C318,1072.25,318,1213.75,319.28109452736317,1288.7916666666667C320.5621890547264,1363.8333333333333,323.1243781094527,1372.4166666666667,324.4054726368159,1376.7083333333333L325.6865671641791,1381" marker-end="url(#arrowhead)" fill="none"/>
<g data-testid="graph-Send SQS Start Export-0" class="edge-label" transform="translate(332.5190713101161,572.7083333333334)">
<rect x="-25" y="-8.25" width="50" height="16.5" class="sc-jmNpzm jQUfbP"/>
<text class="sc-dUWWNf jYvugd label">
<tspan xml:space="preserve" text-anchor="middle" alignment-baseline="central">Catch #1</tspan>
<title>Catch #1</title>
</text>
</g>
</g>
<g class="sc-lkwKjF bZTOSH edge">
<path id="state-Set Failed:state-Fail:normal" d="M333,1430L333,1432.9166666666667C333,1435.8333333333333,333,1441.6666666666667,333,1447.5C333,1453.3333333333333,333,1459.1666666666667,333,1462.0833333333333L333,1465" marker-end="url(#arrowhead)" fill="none"/>
</g>
<g class="sc-lkwKjF bZTOSH edge">
<path id="state-Fail:end:normal" d="M333,1514L333,1516.9166666666667C333,1519.8333333333333,333,1525.6666666666667,333,1535.5833333333333C333,1545.5,333,1559.5,333,1573.5C333,1587.5,333,1601.5,333,1611.4166666666667C333,1621.3333333333333,333,1627.1666666666667,333,1630.0833333333333L333,1633" marker-end="url(#arrowhead)" fill="none"/>
</g>
<g class="sc-lkwKjF bZTOSH edge">
<path id="state-Map:state-Get Triggered Time:normal" d="M695.5736160188457,1329.5L695.9780133490381,1333.7916666666667C696.3824106792305,1338.0833333333333,697.1912053396153,1346.6666666666667,697.5956026698077,1355.25C698,1363.8333333333333,698,1372.4166666666667,698,1376.7083333333333L698,1381" marker-end="url(#arrowhead)" fill="none"/>
</g>
<g class="sc-lkwKjF bZTOSH edge">
<path id="state-Map:state-Set Failed:catch:0" d="M512.4022379269729,1329.5L510.8351982724774,1333.7916666666667C509.26815861798195,1338.0833333333333,506.134079308991,1346.6666666666667,490.04796834437934,1355.25C473.96185737976776,1363.8333333333333,444.92371475953564,1372.4166666666667,430.40464344941955,1376.7083333333333L415.88557213930346,1381" marker-end="url(#arrowhead)" fill="none"/>
<g data-testid="graph-Map-0" class="edge-label" transform="translate(490.04796834437934,1355.25)">
<rect x="-25" y="-8.25" width="50" height="16.5" class="sc-jmNpzm jQUfbP"/>
<text class="sc-dUWWNf jYvugd label">
<tspan xml:space="preserve" text-anchor="middle" alignment-baseline="central">Catch #1</tspan>
<title>Catch #1</title>
</text>
</g>
</g>
<g class="sc-lkwKjF bZTOSH edge">
<path id="state-Get Triggered Time:state-Complete Job:normal" d="M698,1430L698,1432.9166666666667C698,1435.8333333333333,698,1441.6666666666667,698,1447.5C698,1453.3333333333333,698,1459.1666666666667,698,1462.0833333333333L698,1465" marker-end="url(#arrowhead)" fill="none"/>
</g>
<g class="sc-lkwKjF bZTOSH edge">
<path id="state-Complete Job:state-Export Completed:normal" d="M698,1514L698,1516.9166666666667C698,1519.8333333333333,698,1525.6666666666667,698,1531.5C698,1537.3333333333333,698,1543.1666666666667,698,1546.0833333333333L698,1549" marker-end="url(#arrowhead)" fill="none"/>
</g>
<g class="sc-lkwKjF bZTOSH edge">
<path id="state-Export Completed:end:normal" d="M698,1598L698,1600.9166666666667C698,1603.8333333333333,698,1609.6666666666667,640.8120492192767,1618.772166363028C583.6240984385533,1627.8776660593894,469.2481968771067,1640.2553321187788,412.0602460963834,1646.4441651484733L354.87229531566004,1652.6329981781682" marker-end="url(#arrowhead)" fill="none"/>
</g>
</g>
<defs>
<marker id="arrowhead" markerWidth="8" markerHeight="6" refX="7" refY="3" orient="auto" class="sc-jhzXDd bqFdyl">
<polygon points="0 0, 8 3, 0 6"/>
</marker>
<marker id="highlighted-arrowhead" markerWidth="6" markerHeight="4" refX="5" refY="2" orient="auto" class="sc-jhzXDd bqFdyl">
<polygon points="0 0, 6 2, 0 4"/>
</marker>
<marker id="error-arrowhead" markerWidth="6" markerHeight="4" refX="5" refY="2" orient="auto" class="sc-jhzXDd bqFdyl">
<polygon points="0 0, 6 2, 0 4"/>
</marker>
<marker id="large-arrowhead" markerWidth="10" markerHeight="8" refX="9" refY="4" orient="auto" class="sc-jhzXDd bqFdyl">
<polygon points="0 0, 10 4, 0 8"/>
</marker>
<marker id="large-highlighted-arrowhead" markerWidth="5.5" markerHeight="4" refX="4.5" refY="2" orient="auto" class="sc-jhzXDd bqFdyl">
<polygon points="0 0, 5.5 2, 0 4"/>
</marker>
<marker id="large-error-arrowhead" markerWidth="10" markerHeight="8" refX="9" refY="4" orient="auto" class="sc-jhzXDd bqFdyl">
<polygon points="0 0, 10 4, 0 8"/>
</marker>
<linearGradient x1="0%" y1="100%" x2="100%" y2="0%" id="gradient-orange">
<stop stop-color="#C8511B" offset="0%"/>
<stop stop-color="#FF9900" offset="100%"/>
</linearGradient>
<linearGradient x1="0%" y1="100%" x2="100%" y2="0%" id="gradient-turquoise">
<stop stop-color="#055F4E" offset="0%"/>
<stop stop-color="#56C0A7" offset="100%"/>
</linearGradient>
<linearGradient x1="0%" y1="100%" x2="100%" y2="0%" id="gradient-blue">
<stop stop-color="#2E27AD" offset="0%"/>
<stop stop-color="#527FFF" offset="100%"/>
</linearGradient>
<linearGradient x1="0%" y1="100%" x2="100%" y2="0%" id="gradient-pink">
<stop stop-color="#B0084D" offset="0%"/>
<stop stop-color="#FF4F8B" offset="100%"/>
</linearGradient>
<linearGradient x1="0%" y1="100%" x2="100%" y2="0%" id="gradient-red">
<stop stop-color="#BD0816" offset="0%"/>
<stop stop-color="#FF5252" offset="100%"/>
</linearGradient>
<linearGradient x1="0%" y1="100%" x2="100%" y2="0%" id="gradient-green">
<stop stop-color="#1B660F" offset="0%"/>
<stop stop-color="#6CAE3E" offset="100%"/>
</linearGradient>
<linearGradient x1="0%" y1="100%" x2="100%" y2="0%" id="gradient-purple">
<stop stop-color="#4D27A8" offset="0%"/>
<stop stop-color="#A166FF" offset="100%"/>
</linearGradient>
<linearGradient x1="0%" y1="100%" x2="100%" y2="0%" id="gradient-grey">
<stop stop-color="#DCDCDC" offset="0%"/>
<stop stop-color="#F6F5F7" offset="100%"/>
</linearGradient>,<linearGradient x1="0%" y1="100%" x2="100%" y2="0%" id="gradient-ag">
<stop stop-color="#BC1356" offset="0%"/>
<stop stop-color="#F34482" offset="100%"/>
</linearGradient>
<linearGradient x1="0%" y1="100%" x2="100%" y2="0%" id="gradient-athena">
<stop stop-color="#5930B5" offset="0%"/>
<stop stop-color="#945DF2" offset="100%"/>
</linearGradient>
<linearGradient x1="0%" y1="100%" x2="100%" y2="0%" id="gradient-emr">
<stop stop-color="#5930B5" offset="0%"/>
<stop stop-color="#945DF2" offset="100%"/>
</linearGradient>
<linearGradient x1="0%" y1="100%" x2="100%" y2="0%" id="gradient-glue">
<stop stop-color="#5930B5" offset="0%"/>
<stop stop-color="#945DF2" offset="100%"/>
</linearGradient>
<linearGradient x1="0%" y1="100%" x2="100%" y2="0%" id="gradient-sns">
<stop stop-color="#BC1356" offset="0%"/>
<stop stop-color="#F34482" offset="100%"/>
</linearGradient>
<linearGradient x1="0%" y1="100%" x2="100%" y2="0%" id="gradient-states">
<stop stop-color="#BC1356" offset="0%"/>
<stop stop-color="#F34482" offset="100%"/>
</linearGradient>
<linearGradient x1="0%" y1="100%" x2="100%" y2="0%" id="gradient-generic">
<stop stop-color="#ccc" offset="0%"/>
<stop stop-color="#ddd" offset="100%"/>
</linearGradient>
<g stroke="none" stroke-width="1" fill="none" fill-rule="evenodd" id="icon-flow-map">
<g transform="translate(7.250000, 12.250000)" fill="#0073BB" fill-rule="nonzero">
<path d="M18.75,6.75 C19.3022847,6.75 19.75,7.19771525 19.75,7.75 L19.75,10.75 C19.75,11.3022847 19.3022847,11.75 18.75,11.75 L17,11.75 L17,14.75 L18.75,14.75 C19.3022847,14.75 19.75,15.1977153 19.75,15.75 L19.75,18.75 C19.75,19.3022847 19.3022847,19.75 18.75,19.75 L13.75,19.75 C13.1977153,19.75 12.75,19.3022847 12.75,18.75 L12.75,15.75 C12.75,15.1977153 13.1977153,14.75 13.75,14.75 L15.5,14.75 L15.5,11.75 L13.75,11.75 C13.1977153,11.75 12.75,11.3022847 12.75,10.75 L12.75,7.75 C12.75,7.19771525 13.1977153,6.75 13.75,6.75 L18.75,6.75 Z M18.25,16.25 L14.25,16.25 L14.25,18.25 L18.25,18.25 L18.25,16.25 Z M18.25,8.25 L14.25,8.25 L14.25,10.25 L18.25,10.25 L18.25,8.25 Z"/>
<path d="M4.36774058,12.9781551 L4.25581637,12.9873783 L4.25581637,12.9873783 L4.16664164,12.9827819 L4.16664164,12.9827819 L4.09909543,12.9721471 L4.09909543,12.9721471 L4.01772926,12.9506961 L4.01772926,12.9506961 L3.9143938,12.9083506 L3.9143938,12.9083506 L3.84086306,12.8661585 L3.84086306,12.8661585 L3.80378835,12.840349 L3.80378835,12.840349 L3.71966991,12.7677308 L0.219669914,9.26773081 C-0.0732233047,8.97483759 -0.0732233047,8.49996385 0.219669914,8.20707064 C0.485936477,7.94080407 0.902600159,7.91659802 1.19621165,8.13445248 L1.28033009,8.20707064 L3.5,10.427 L3.5,5.75 C3.5,2.64821472 5.95601719,0.120062989 9.02944429,0.00415208345 L9.25,-4.97379915e-14 L24.25,-4.97379915e-14 C27.3101239,-4.97379915e-14 29.8183331,2.39279152 29.9905671,5.41800288 L29.9990775,5.65628924 L30,7.75 C30,8.16421356 29.6642136,8.5 29.25,8.5 C28.8357864,8.5 28.5,8.16421356 28.5,7.75 L28.4992379,5.66855413 C28.4572345,3.42607261 26.6797069,1.6129038 24.4594105,1.50507399 L24.25,1.5 L9.25,1.5 C6.97182541,1.5 5.11231326,3.29250701 5.00490093,5.54408366 L5,5.75 L5,10.426 L7.21966991,8.20707064 L7.30378835,8.13445248 C7.59739984,7.91659802 8.01406352,7.94080407 8.28033009,8.20707064 C8.54659665,8.4733372 8.5708027,8.89000088 8.35294824,9.18361237 L8.28033009,9.26773081 L4.78033009,12.7677308 C4.74270234,12.8053586 4.70207113,12.8381523 4.65920816,12.866112 L4.58539483,12.9084563 L4.58539483,12.9084563 L4.50825575,12.9417254 L4.50825575,12.9417254 L4.44163507,12.9626313 L4.44163507,12.9626313 L4.36774058,12.9781551 L4.36774058,12.9781551 Z"/>
<path d="M29.1567308,12.467303 L29.2441836,12.4615381 L29.2441836,12.4615381 L29.3612017,12.4697569 L29.3612017,12.4697569 L29.4099419,12.4786795 L29.4099419,12.4786795 L29.4761141,12.4962504 L29.4761141,12.4962504 L29.5349097,12.5175276 L29.5349097,12.5175276 L29.6051875,12.5507277 L29.6051875,12.5507277 L29.6962117,12.6085674 L29.6962117,12.6085674 L29.7803301,12.6811856 L33.2803301,16.1811856 C33.5732233,16.4740788 33.5732233,16.9489525 33.2803301,17.2418457 C33.0140635,17.5081123 32.5973998,17.5323184 32.3037883,17.3144639 L32.2196699,17.2418457 L30,15.0225381 L30,19.75 C30,22.8517853 27.5439828,25.379937 24.4705557,25.4958479 L24.25,25.5 L9.25,25.5 C6.22364937,25.5 3.73212863,23.1580245 3.51530256,20.1724864 L3.50299507,19.9226196 L3.5,17.75 C3.5,17.3357864 3.83578644,17 4.25,17 C4.62969577,17 4.94349096,17.2821539 4.99315338,17.6482294 L5,17.75 L5.00247606,19.8966995 C5.07738217,22.1119658 6.84520232,23.8893416 9.04275865,23.9950272 L9.25,24 L24.25,24 C26.5281746,24 28.3876867,22.207493 28.4950991,19.9559163 L28.5,19.75 L28.5,15.0215381 L26.2803301,17.2418457 L26.1962117,17.3144639 C25.9026002,17.5323184 25.4859365,17.5081123 25.2196699,17.2418457 C24.9534034,16.9755792 24.9291973,16.5589155 25.1470518,16.265304 L25.2196699,16.1811856 L28.7196699,12.6811856 L28.7969693,12.6136874 L28.7969693,12.6136874 L28.8948226,12.5507257 L28.8948226,12.5507257 L28.96499,12.5175687 L28.96499,12.5175687 L29.0426978,12.4905912 L29.0426978,12.4905912 L29.0900352,12.4786762 L29.0900352,12.4786762 L29.1567308,12.467303 L29.1567308,12.467303 Z"/>
</g>
</g>
<g stroke="none" stroke-width="1" fill="none" fill-rule="evenodd" id="icon-flow-choice">
<g transform="translate(9.252020, 8.729185)" fill="#0073BB" fill-rule="nonzero">
<path d="M13.7176503,0.219669914 C13.9839168,-0.0465966484 14.4005805,-0.0708026996 14.694192,0.147051761 L14.7783104,0.219669914 L26.7991257,12.2404852 C27.0653923,12.5067518 27.0895983,12.9234154 26.8717439,13.2170269 L26.7991257,13.3011454 L19.848,20.251 L27.063,27.58 L27.0635443,24.4725437 C27.0635443,24.0583302 27.3993308,23.7225437 27.8135443,23.7225437 C28.1901021,23.7225437 28.5018441,24.0000532 28.5554124,24.3617142 L28.5635443,24.4725437 L28.5635443,29.4222912 C28.5635443,29.4735748 28.5583971,29.5236562 28.5485912,29.5720469 L28.5290567,29.6477745 L28.4912259,29.7440224 L28.4674556,29.7898473 L28.4399848,29.8348433 L28.3922808,29.8993609 L28.3266417,29.9693147 L28.2903734,30.0012261 L28.2103598,30.0588356 L28.1372883,30.0990133 L28.0408973,30.1372113 L27.9243738,30.1641593 C27.8841362,30.1698129 27.8491297,30.1722912 27.8135443,30.1722912 L22.8637969,30.1722912 C22.4495833,30.1722912 22.1137969,29.8365048 22.1137969,29.4222912 C22.1137969,29.0457334 22.3913063,28.7339914 22.7529674,28.6804231 L22.8637969,28.6722912 L26.032,28.672 L18.787,21.312 L14.7783104,25.3219606 C14.5120439,25.5882272 14.0953802,25.6124333 13.8017687,25.3945788 L13.7176503,25.3219606 L9.63,21.234 L2.386,28.671 L5.69974747,28.6722912 L5.81057697,28.6804231 C6.17223802,28.7339914 6.44974747,29.0457334 6.44974747,29.4222912 C6.44974747,29.801987 6.16759359,30.1157822 5.80151803,30.1654446 L5.69974747,30.1722912 L0.75,30.1722912 L0.645175107,30.1650238 L0.571316134,30.150876 L0.491748953,30.1266437 L0.399838514,30.0857012 L0.323957521,30.0396165 L0.243169757,29.975129 L0.170912131,29.8989347 L0.109961584,29.8134582 L0.0656949991,29.7297074 L0.0297396696,29.6320944 L0.0076057584,29.5294944 L6.67910172e-13,29.4222912 L6.67910172e-13,24.4725437 L0.00813192572,24.3617142 C0.0617002376,24.0000532 0.373442216,23.7225437 0.75,23.7225437 C1.12969577,23.7225437 1.44349096,24.0046976 1.49315338,24.3707732 L1.5,24.4725437 L1.499,27.433 L8.569,20.174 L1.69683498,13.3011454 C1.43056842,13.0348788 1.40636237,12.6182151 1.62421683,12.3246036 L1.69683498,12.2404852 L13.7176503,0.219669914 Z M14.3527697,23.728356 L25.2081355,12.7708153 L14.2479803,1.81066017 L3.28782524,12.7708153 L9.616,19.099 L14.3527697,23.728356 Z"/>
<path d="M15.2319803,14.0468153 L15.2319803,13.2668153 C16.0033137,12.8508153 16.5579803,12.4218153 16.8959803,11.9798153 C17.2339803,11.5378153 17.4029803,11.0178153 17.4029803,10.4198153 C17.4029803,9.65714861 17.151647,9.06131528 16.6489803,8.63231528 C16.1463137,8.20331528 15.448647,7.98881528 14.5559803,7.98881528 C13.6979803,7.98881528 12.874647,8.19248195 12.0859803,8.59981528 L12.0859803,8.59981528 L12.0859803,10.3288153 C12.8313137,9.98214861 13.4943137,9.80881528 14.0749803,9.80881528 C14.395647,9.80881528 14.6404803,9.87814861 14.8094803,10.0168153 C14.9784803,10.1554819 15.0629803,10.3591486 15.0629803,10.6278153 C15.0629803,10.9138153 14.9763137,11.1651486 14.8029803,11.3818153 C14.629647,11.5984819 14.343647,11.8151486 13.9449803,12.0318153 L13.9449803,12.0318153 L13.1909803,12.4348153 L13.3339803,14.0468153 L15.2319803,14.0468153 Z M14.3089803,17.4398153 C14.7249803,17.4398153 15.0608137,17.3141486 15.3164803,17.0628153 C15.572147,16.8114819 15.6999803,16.4821486 15.6999803,16.0748153 C15.6999803,15.6674819 15.572147,15.3381486 15.3164803,15.0868153 C15.0608137,14.8354819 14.7249803,14.7098153 14.3089803,14.7098153 C13.8929803,14.7098153 13.557147,14.8354819 13.3014803,15.0868153 C13.0458137,15.3381486 12.9179803,15.6674819 12.9179803,16.0748153 C12.9179803,16.4821486 13.0458137,16.8114819 13.3014803,17.0628153 C13.557147,17.3141486 13.8929803,17.4398153 14.3089803,17.4398153 Z"/>
</g>
</g>
<g stroke="none" stroke-width="1" fill="none" fill-rule="evenodd" id="icon-flow-succeed">
<g transform="translate(11.250000, 12.250000)" fill="#2AB512" fill-rule="nonzero">
<path d="M12.75,0 C5.70836944,0 0,5.70836944 0,12.75 C0,19.7916306 5.70836944,25.5 12.75,25.5 C19.7916306,25.5 25.5,19.7916306 25.5,12.75 C25.5,5.70836944 19.7916306,0 12.75,0 Z M12.75,1.5 C18.9632034,1.5 24,6.53679656 24,12.75 C24,18.9632034 18.9632034,24 12.75,24 C6.53679656,24 1.5,18.9632034 1.5,12.75 C1.5,6.53679656 6.53679656,1.5 12.75,1.5 Z"/>
<path d="M17.482151,9.3912361 C17.7750442,9.09834288 18.2499179,9.09834288 18.5428111,9.3912361 C18.8090777,9.65750266 18.8332838,10.0741663 18.6154293,10.3677778 L18.5428111,10.4518963 L11.1581958,17.8365117 C10.9013427,18.0933647 10.5030038,18.1258243 10.2104294,17.9293959 L10.1171609,17.8554362 L6.98253225,14.9408143 C6.67918728,14.6587599 6.66192789,14.1841999 6.94398232,13.8808549 C7.20039544,13.6050868 7.61590405,13.565753 7.91723953,13.7727921 L8.0039417,13.842305 L10.608,16.264 L17.482151,9.3912361 Z"/>
</g>
</g>
<g stroke="none" stroke-width="1" fill="none" fill-rule="evenodd" id="icon-flow-fail">
<g transform="translate(11.250000, 12.250000)" fill="#D13212" fill-rule="nonzero">
<path d="M12.75,0 C5.70836944,0 0,5.70836944 0,12.75 C0,19.7916306 5.70836944,25.5 12.75,25.5 C19.7916306,25.5 25.5,19.7916306 25.5,12.75 C25.5,5.70836944 19.7916306,0 12.75,0 Z M12.75,1.5 C18.9632034,1.5 24,6.53679656 24,12.75 C24,18.9632034 18.9632034,24 12.75,24 C6.53679656,24 1.5,18.9632034 1.5,12.75 C1.5,6.53679656 6.53679656,1.5 12.75,1.5 Z"/>
<path d="M16.5831403,8.21116377 C16.8767518,7.99330931 17.2934155,8.01751536 17.559682,8.28378193 C17.8259486,8.55004849 17.8501547,8.96671217 17.6323002,9.26032366 L17.559682,9.3444421 L13.622464,13.282112 L17.559682,17.2196699 C17.8525753,17.5125631 17.8525753,17.9874369 17.559682,18.2803301 C17.2934155,18.5465966 16.8767518,18.5708027 16.5831403,18.3529482 L16.4990219,18.2803301 L12.561464,14.343112 L8.62379406,18.2803301 L8.53967563,18.3529482 C8.24606413,18.5708027 7.82940045,18.5465966 7.56313389,18.2803301 C7.29686733,18.0140635 7.27266128,17.5973998 7.49051574,17.3037883 L7.56313389,17.2196699 L11.500464,13.282112 L7.56313389,9.3444421 C7.27024067,9.05154888 7.27024067,8.57667514 7.56313389,8.28378193 C7.82940045,8.01751536 8.24606413,7.99330931 8.53967563,8.21116377 L8.62379406,8.28378193 L12.561464,12.221112 L16.4990219,8.28378193 L16.5831403,8.21116377 Z"/>
</g>
</g>
<g stroke="none" stroke-width="1" fill="none" fill-rule="evenodd" id="icon-flow-s3-json-file">
<g transform="translate(8.25, 8.250000)" fill-rule="nonzero">
<g id="Group" fill="#0073BB" fill-rule="nonzero">
<path d="M3.14022625,14.8427181 L3.04838959,14.837465 L2.97882707,14.825311 L2.89503206,14.8007955 L2.78861196,14.7524007 L2.71288627,14.7041811 L2.67470485,14.6746845 L2.58807542,14.5916924 C1.45196787,13.3309188 0.599887201,12.3853386 0.031833424,11.7549518 C0.000399364576,11.7200684 -0.00775491605,11.7065131 0.0073705821,11.7142857 L0.00737058211,9.42857143 L0.0759194765,9.3795093 L2.36184819,11.9165714 L2.36184819,6.57142857 C2.36184819,3.02653111 4.89117933,0.137214844 8.05635052,0.00474523823 L8.28348999,0 L23.7312512,0 C26.8827221,0 29.4658032,2.73461888 29.6431785,6.19200329 L29.651943,6.46433056 L29.7573706,14 C29.7573706,14.4733869 29.2839487,15 28.8573706,15 C28.4307924,15 28.0573706,14.4733869 28.0573706,14 C28.0906961,12.8768885 28.1073569,11.8916977 28.107353,11.0444277 C28.1073484,10.0297432 28.1073413,8.50771651 28.107332,6.47834758 C28.0640748,3.91551155 26.2334867,1.52323407 23.9469128,1.4 L23.7312512,1.4 L8.28348999,1.4 C5.93731018,1.4 4.02229021,3.76286516 3.91167154,6.33609562 L3.90662431,6.57142857 L3.90662431,11.9154286 L6.19255303,9.3795093 L6.22729127,11.7653253 L3.68039709,14.5916924 C3.64164613,14.6346955 3.59980204,14.672174 3.55565958,14.704128 L3.47964287,14.7525215 L3.40020114,14.7905433 L3.33159177,14.8144357 L3.25549148,14.8321773 L3.14022625,14.8427181 Z" id="Path"/>
<path d="M28.8745149,20 L28.9950261,20.0082188 L29.0452212,20.0171414 L29.1133687,20.0347123 L29.1739194,20.0559896 L29.246295,20.0891896 L29.3400363,20.1470293 L29.4266657,20.2196475 L32.0472152,22.764239 L32.0254511,24.8529258 L31.9388217,24.7803077 L29.652893,22.561 L29.652893,27.2884619 C29.652893,30.3902472 27.1235618,32.9183989 23.9583906,33.0343098 L23.7312512,33.0384619 L8.28348999,33.0384619 C5.16680053,33.0384619 2.60090604,30.6964864 2.37760755,27.7109484 L2.36493266,27.4610815 L2.45737058,21 C2.45737058,20.5857864 2.83079244,20 3.25737058,20 C3.64840055,20 3.9562257,20.6339244 4.00737058,21 L3.90662431,25.2884619 L3.90917429,27.4351614 C3.9863164,29.6504278 5.8069073,31.5943145 8.07006233,31.7 L8.28348999,31.7 L23.7312512,31.7 C26.077431,31.7 27.992451,29.7459549 28.1030696,27.4943783 L28.1081169,27.2884619 L28.1081169,22.56 L25.7573706,24.7884619 L25.7573706,22.7884619 L28.3343441,20.2196475 L28.4139509,20.1521494 L28.5147252,20.0891877 L28.5869872,20.0560307 L28.6670145,20.0290532 L28.715765,20.0171381 L28.7844515,20.0057649 L28.8745149,20 Z" id="Path"/>
</g>
<g id="Group-5" transform="translate(9.674037, 6.916667)">
<g id="Group-2" stroke="#0073BB" stroke-linejoin="round">
<g id="Outline-Copy">
<path d="M0,0.491452991 C0,0.201004274 0.2026875,0 0.496895833,0 L8.94436458,0 L13.4166667,4.42307692 L13.4166667,18.6752137 C13.4166667,18.9656624 13.2139792,19.1666667 12.9197708,19.1666667 L0.496895833,19.1666667 C0.2026875,19.1666667 0,18.9656624 0,18.6752137 C0,13.4738813 0,9.5728821 0,6.97221593 L0,0.491452991 Z" id="Path" stroke-width="1.2" stroke-linecap="round"/>
<polyline id="Stroke-7" stroke-width="1.5" points="8.94444444 0 8.94444444 4.47222222 13.4166667 4.47222222"/>
</g>
</g>
<g id="script" opacity="0.867687044" transform="translate(2.383333, 6.083333)" fill="#0160AC" fill-rule="nonzero">
<path d="M5.84514794,8.5 C6.44891075,8.5 6.85243366,8.41547827 7.05571666,8.24643485 C7.25899972,8.07739144 7.36064125,7.7404468 7.36064125,7.23560088 L7.36064125,7.03857396 C7.36064125,6.69591834 7.42698211,5.91866129 7.55966383,5.78616777 C7.69234556,5.6536743 7.93032065,5.58742757 8.27358901,5.58742757 L8.5,5.58742757 L8.5,3.85359032 L8.27358901,3.85359032 C7.93032065,3.85359032 7.69234556,3.78791466 7.55966383,3.65656336 C7.42698211,3.52521205 7.36064125,2.74738389 7.36064125,2.40244394 L7.36064125,2.20541698 C7.36064125,1.70057109 7.25899972,1.36419753 7.05571666,1.1962963 C6.85243366,1.02839506 6.44891075,0.944444444 5.84514794,0.944444444 L4.72222222,0.944444444 L4.72222222,2.13517259 L5.16408891,2.13517259 C5.41971431,2.13517259 5.59073986,2.18428655 5.67716555,2.28251448 C5.7635913,2.38074242 5.80680417,3.13058704 5.80680417,3.45268329 L5.80680417,3.62915091 C5.80680417,4.00607205 5.86584146,4.27105903 5.98391603,4.42411186 C6.10199061,4.57716468 6.31440308,4.67539262 6.62115356,4.71879566 C6.31683766,4.76676744 6.10503376,4.86842192 5.98574193,5.02375912 C5.86645009,5.17909632 5.80680417,5.4440833 5.80680417,5.81872007 L5.80680417,5.98148147 C5.80680417,6.30814645 5.76298267,7.06027545 5.67533966,7.1585034 C5.5876967,7.25673134 5.41727979,7.30584526 5.16408891,7.30584526 L4.72222222,7.30584526 L4.72222222,8.5 L5.84514794,8.5 Z" id="}"/>
<path d="M1.12292573,8.5 C1.7266885,8.5 2.13021141,8.41547827 2.33349444,8.24643485 C2.53677747,8.07739144 2.63841899,7.7404468 2.63841899,7.23560088 L2.63841899,7.03857396 C2.63841899,6.69591834 2.70475986,5.91866129 2.8374416,5.78616777 C2.97012333,5.6536743 3.20809838,5.58742757 3.55136674,5.58742757 L3.77777778,5.58742757 L3.77777778,3.85359032 L3.55136674,3.85359032 C3.20809838,3.85359032 2.97012333,3.78791466 2.8374416,3.65656336 C2.70475986,3.52521205 2.63841899,2.74738389 2.63841899,2.40244394 L2.63841899,2.20541698 C2.63841899,1.70057109 2.53677747,1.36419753 2.33349444,1.1962963 C2.13021141,1.02839506 1.7266885,0.944444444 1.12292573,0.944444444 L0,0.944444444 L0,2.13517259 L0.441866711,2.13517259 C0.697492077,2.13517259 0.868517623,2.18428655 0.954943343,2.28251448 C1.04136906,2.38074242 1.08458193,2.5909045 1.08458193,2.91300075 L1.08458193,3.08946838 C1.08458193,3.46638952 1.14361921,4.27105903 1.26169378,4.42411186 C1.37976836,4.57716468 1.59218087,4.67539262 1.89893131,4.71879566 C1.5946154,4.76676744 1.38281152,4.86842192 1.26351968,5.02375912 C1.14422784,5.17909632 1.08458193,5.4440833 1.08458193,5.81872007 L1.08458193,5.98148147 C1.08458193,6.30814645 1.04076043,7.06027545 0.953117449,7.1585034 C0.865474467,7.25673134 0.695057552,7.30584526 0.441866711,7.30584526 L0,7.30584526 L0,8.5 L1.12292573,8.5 Z" id="}-copy" transform="translate(1.888889, 4.722222) scale(-1, 1) translate(-1.888889, -4.722222) "/>
</g>
</g>
</g>
</g>
<g stroke="none" stroke-width="1" fill="none" fill-rule="evenodd" id="icon-service-ddb">
<polygon fill="url(#gradient-blue)" fill-rule="nonzero" points="0 0 48 0 48 48 0 48"/>
<path d="M34.5810287,19.5947556 L32.1910412,19.5947556 C31.9723757,19.5947556 31.7677101,19.4862534 31.6430441,19.3049671 C31.5183781,19.1230069 31.4897116,18.8911762 31.5670445,18.6842807 L33.2290358,14.2033421 L27.287067,14.2033421 L24.559748,20.2686823 L27.5243991,20.2686823 C27.738398,20.2686823 27.9397302,20.372467 28.0657296,20.5490358 C28.1903956,20.7242568 28.2250621,20.9500222 28.1563958,21.1555699 L25.7164086,28.5559589 L34.5810287,19.5947556 Z M36.6616844,19.3972951 L24.6624141,31.5279756 C24.5344148,31.6580435 24.3630824,31.7254361 24.1910833,31.7254361 C24.0697506,31.7254361 23.9490845,31.6924137 23.8410851,31.6250211 C23.5777532,31.4605829 23.4604204,31.1350764 23.5590866,30.8385486 L26.5990706,21.6165357 L23.5244201,21.6165357 C23.2977546,21.6165357 23.0870891,21.4999464 22.9637564,21.3078773 C22.841757,21.1144603 22.8237571,20.8725206 22.9177566,20.6636034 L26.2510724,13.2504097 C26.3590719,13.0098179 26.5957373,12.8554887 26.8577359,12.8554887 L34.1910307,12.8554887 C34.4096962,12.8554887 34.6143618,12.9639909 34.7390278,13.1452772 C34.8636938,13.3272374 34.8923603,13.5590681 34.8156941,13.7659636 L33.1530362,18.2469022 L36.1903535,18.2469022 C36.4596854,18.2469022 36.7036842,18.4113403 36.8063503,18.662715 C36.9096831,18.9147636 36.85235,19.2045521 36.6616844,19.3972951 L36.6616844,19.3972951 Z M30.8577149,32.241664 C29.0510577,33.4992112 25.7330752,34.163029 22.5457586,34.163029 C19.3351088,34.163029 15.9877931,33.4904502 14.1904692,32.214033 L14.1911358,34.7581063 C14.1911358,35.8673896 17.3697858,37.4140514 22.5457586,37.4140514 C27.542399,37.4140514 30.8577149,35.6126453 30.8577149,34.4211429 L30.8577149,32.241664 Z M32.2337077,30.0621851 C32.2337077,30.1868615 32.2123744,30.3068204 32.1910412,30.4261055 L32.1910412,34.4211429 C32.1910412,36.8149305 27.8643973,38.7619048 22.5457586,38.7619048 C17.9437828,38.7619048 13.2984739,37.5023358 12.8971426,35.0950696 L12.8578095,35.0950696 L12.8571429,31.7254361 L12.8571429,22.9643891 L12.8571429,13.5294154 L12.8578095,13.5294154 C12.8578095,10.8653831 17.8491166,9.42857143 22.5457586,9.42857143 C25.1730781,9.42857143 27.6990648,9.85516703 29.4770555,10.5991821 L28.9663915,11.8445986 C27.3450667,11.1652805 25.0044123,10.7764248 22.5457586,10.7764248 C17.3697858,10.7764248 14.1911358,12.3796964 14.1911358,13.5294154 C14.1911358,14.6791343 17.3697858,16.2824059 22.5457586,16.2824059 C22.6757579,16.2824059 22.8117572,16.2830798 22.9430898,16.2776884 L22.9950896,17.624194 C22.8450903,17.6302593 22.6957578,17.6302593 22.5457586,17.6302593 C19.3344421,17.6302593 15.9877931,16.9576805 14.1904692,15.6812633 L14.1904692,18.5865613 L14.1911358,18.5865613 L14.1911358,18.598018 C14.1944692,18.9511556 14.5171341,19.3602291 15.1004644,19.7443674 C16.4217908,20.60295 18.8004449,21.1899401 21.4597643,21.3119208 L21.399098,22.6584264 C18.6484457,22.5317282 16.2324584,21.9460859 14.6751333,21.0477416 C14.4684677,21.24655 14.1911358,21.751995 14.1911358,22.0256092 C14.1911358,23.1753282 17.3697858,24.7785998 22.5457586,24.7785998 C23.037756,24.7785998 23.5224201,24.7617516 23.9870843,24.7287292 L24.0810839,26.0732129 C23.5850865,26.1089311 23.0684225,26.1264532 22.5457586,26.1264532 C19.3344421,26.1264532 15.9877931,25.4538743 14.1904692,24.1774572 L14.1904692,26.6238111 L14.1911358,26.6238111 C14.1944692,26.9884054 14.5171341,27.3974789 15.1004644,27.7816171 C16.6124564,28.7648762 19.4664414,29.3774755 22.5457586,29.3774755 L22.7657574,29.3774755 L22.7657574,30.7253289 L22.5457586,30.7253289 C19.360442,30.7253289 15.9724598,30.053424 14.1911358,29.0297294 C13.9764703,29.2285377 14.1911358,29.7036561 14.1911358,30.0621851 C14.1911358,31.211904 17.3697858,32.8151756 22.5457586,32.8151756 C27.722398,32.8151756 30.9003813,31.211904 30.9003813,30.0621851 C30.9003813,29.6558073 30.5010501,29.2790822 30.1723852,29.0364686 C29.8997199,29.2009067 29.5997215,29.3586056 29.2577233,29.5028259 L28.745726,28.2580833 C29.0997241,28.1091455 29.4057225,27.9494249 29.6550545,27.7836389 C30.3890507,27.2943681 30.8577149,26.5982018 30.8577149,26.3340226 L32.1910412,26.3340226 C32.1910412,26.9607744 31.7770434,27.6320054 31.2463795,28.1839514 C32.041042,28.8774219 32.2337077,29.5695446 32.2337077,30.0621851 L32.2337077,30.0621851 Z M14.9517985,35.0209377 C15.4791291,35.2932041 16.0957925,35.5358177 16.7864555,35.7413653 L17.1624536,34.4481 C16.5517901,34.2668137 16.0117929,34.0552007 15.558462,33.8206742 L14.9517985,35.0209377 Z M16.7864555,27.654245 L17.1624536,26.3616536 C16.5517901,26.1796934 16.0117929,25.9687543 15.558462,25.7342278 L14.9517985,26.9338173 C15.4791291,27.2067576 16.0957925,27.4486973 16.7864555,27.654245 L16.7864555,27.654245 Z M14.9517985,18.8473709 L15.558462,17.6471075 C16.0117929,17.881634 16.5517901,18.092573 17.1624536,18.2745332 L16.7864555,19.5677986 C16.0957925,19.3622509 15.4791291,19.1196373 14.9517985,18.8473709 L14.9517985,18.8473709 Z" fill="#FFFFFF"/>
</g>
<g stroke="none" stroke-width="1" fill="none" fill-rule="evenodd" id="icon-service-lam">
<polygon fill="url(#gradient-orange)" fill-rule="nonzero" points="0 0 48 0 48 48 0 48"/>
<g transform="translate(11, 10)" fill="#FFFFFF">
<path d="M26.5889213,27.8937088 L19.6925948,27.8937088 C19.4772752,27.8931074 19.2813916,27.7706914 19.1888047,27.578869 L9.43766764,7.45673404 L5.31218659,7.45673404 C5.00303594,7.45673404 4.75241983,7.20943823 4.75241983,6.90438337 L4.75241983,0.828526005 C4.75241983,0.523471153 5.00303594,0.276175335 5.31218659,0.276175335 L13.9325948,0.276175335 C14.1479143,0.276776788 14.3437979,0.399192787 14.4363848,0.591015217 L24.1427405,20.7131501 L26.5889213,20.7131501 C26.8980719,20.7131501 27.148688,20.9604459 27.148688,21.2655008 L27.148688,27.3413582 C27.148688,27.646413 26.8980719,27.8937088 26.5889213,27.8937088 Z M20.0452478,26.7890075 L26.0291545,26.7890075 L26.0291545,21.8178515 L23.7900875,21.8178515 C23.5747679,21.81725 23.3788843,21.694834 23.2862974,21.5030116 L13.5799417,1.38087667 L5.87755102,1.38087667 L5.87755102,6.3520327 L9.79591837,6.3520327 C10.0112379,6.35263416 10.2071215,6.47505016 10.2997085,6.66687259 L20.0452478,26.7890075 Z"/>
<path d="M8.10542274,27.8937099 L0.82845481,27.8937099 C0.635054571,27.8940907 0.455155006,27.7959347 0.352653061,27.634104 C0.243858391,27.4681848 0.233185428,27.2575536 0.324664723,27.0817533 L7.93749271,11.3894708 C8.03007964,11.1976484 8.22596323,11.0752324 8.4412828,11.0746298 L8.4412828,11.0746298 C8.65533487,11.0742082 8.85089022,11.1942751 8.94507289,11.3839473 L12.5891545,18.7799228 C12.6634688,18.931712 12.6634688,19.1086786 12.5891545,19.2604679 L8.6148105,27.5457279 C8.53147526,27.7523199 8.33072312,27.8894609 8.10542274,27.8937099 L8.10542274,27.8937099 Z M1.72408163,26.7890075 L7.75276968,26.7890075 L11.4640233,19.0560981 L8.44688047,12.8973881 L1.72408163,26.7890075 Z"/>
</g>
</g>
<g stroke="none" stroke-width="1" fill="none" fill-rule="evenodd" id="icon-service-sqs">
<polygon fill="url(#gradient-pink)" fill-rule="nonzero" points="0 0 48 0 48 48 0 48"/>
<g transform="translate(5.142857, 8.571429)" fill="#FFFFFF">
<path d="M8.75099274,5.82507289 C12.199558,2.33979238 17.1740722,0.891686988 21.9242217,1.99028157 C26.6743712,3.08887616 30.5345894,6.58024123 32.1466344,11.2359184 L33.35477,10.8087464 C31.1863432,4.52933615 25.3343647,0.324076433 18.7644552,0.324076433 C12.1945457,0.324076433 6.34256723,4.52933615 4.17414044,10.8087464 L5.38227603,11.2359184 C6.08212426,9.19538059 7.23452905,7.34438366 8.75099274,5.82507289 Z"/>
<path d="M28.7651332,25.8892128 C23.227346,31.4887116 14.2568186,31.4887116 8.71903148,25.8892128 C7.20048733,24.3564411 6.04821374,22.4923718 5.35031477,20.4395335 L4.14217918,20.8667055 C5.88850894,25.9556154 10.0971359,29.7773089 15.2828622,30.9831348 C20.4685885,32.1889607 25.9022873,30.6093765 29.6664407,26.8018076 C31.3374905,25.1213581 32.6020195,23.0723312 33.3611622,20.8149271 L32.1530266,20.4006997 C31.4548,22.4692673 30.2955578,24.3472826 28.7651332,25.8892128 L28.7651332,25.8892128 Z"/>
<path d="M7.76659995,15.8312536 C7.76933578,14.0274078 6.51284421,12.4729655 4.7659317,12.1190568 C3.01901918,11.7651481 1.26855982,12.7104093 0.585622431,14.3764553 C-0.0973149553,16.0425012 0.47760803,17.9649957 1.95860824,18.9676053 C3.43960846,19.970215 5.41392304,19.7735069 6.6735109,18.4978426 C7.37558993,17.7928824 7.76930507,16.8324026 7.76659995,15.8312536 L7.76659995,15.8312536 Z M5.75302663,17.5852478 C4.78372642,18.5164458 3.26411861,18.5164458 2.2948184,17.5852478 C1.59903522,16.8764869 1.39161219,15.8140139 1.76873463,14.8905142 C2.14585707,13.9670145 3.03376689,13.3631073 4.02072639,13.3588338 C4.66985355,13.3603379 5.29224775,13.6207849 5.75302663,14.0837318 C6.7063806,15.0513208 6.7063806,16.6176588 5.75302663,17.5852478 L5.75302663,17.5852478 Z"/>
<path d="M36.3079903,13.2099708 C35.2440461,12.1325134 33.6438315,11.8101138 32.253574,12.3931165 C30.8633164,12.9761193 29.956826,14.3497025 29.956826,15.8733236 C29.956826,17.3969448 30.8633164,18.7705279 32.253574,19.3535307 C33.6438315,19.9365334 35.2440461,19.6141338 36.3079903,18.5366764 L36.3079903,18.5366764 C37.7605461,17.0656716 37.7605461,14.6809756 36.3079903,13.2099708 L36.3079903,13.2099708 Z M35.4002906,17.6176093 C34.4468607,18.5821591 32.9019044,18.5821591 31.9484746,17.6176093 C31.4894188,17.1548463 31.2313538,16.5259784 31.2313538,15.8700875 C31.2313538,15.2141965 31.4894188,14.5853286 31.9484746,14.1225656 C32.5587504,13.4675238 33.4725028,13.2002414 34.3337587,13.4248444 C35.1950145,13.6494474 35.8675571,14.3304123 36.0893821,15.2024539 C36.3112071,16.0744954 36.0472306,16.9996909 35.4002906,17.6176093 L35.4002906,17.6176093 Z"/>
<path d="M13.5387893,22.1223324 C16.1596126,19.468688 21.4971429,19.468688 24.1179661,22.1223324 C24.2370286,22.2419044 24.3977295,22.3093142 24.5654237,22.3100292 C24.918458,22.3100292 25.2046489,22.0202543 25.2046489,21.6627988 C25.2056312,21.4907631 25.1389279,21.3254099 25.0192736,21.2032653 C23.7143164,19.7410388 23.0260497,17.8199564 23.1015981,15.8506706 C23.0267337,13.8814926 23.7149097,11.9606634 25.0192736,10.4980758 C25.2671163,10.2456317 25.2671163,9.83792512 25.0192736,9.58548105 C24.7699518,9.33453458 24.3672879,9.33453458 24.1179661,9.58548105 C21.4971429,12.2326531 16.1596126,12.2326531 13.5387893,9.58548105 C13.2894676,9.33453458 12.8868036,9.33453458 12.6374818,9.58548105 C12.3896392,9.83792512 12.3896392,10.2456317 12.6374818,10.4980758 C13.9534405,11.9556105 14.6532962,13.8770165 14.5871186,15.8506706 C14.6539827,17.8244365 13.9540344,19.7460968 12.6374818,21.2032653 C12.5178275,21.3254099 12.4511242,21.4907631 12.4521065,21.6627988 C12.4511242,21.8348346 12.5178275,22.0001878 12.6374818,22.1223324 C12.8868036,22.3732788 13.2894676,22.3732788 13.5387893,22.1223324 L13.5387893,22.1223324 Z M15.1943826,12.1808746 C17.5307809,13.1066362 20.1259746,13.1066362 22.4623729,12.1808746 C21.5673965,14.5457249 21.5673965,17.1620885 22.4623729,19.5269388 C20.1259746,18.6011772 17.5307809,18.6011772 15.1943826,19.5269388 C16.089359,17.1620885 16.089359,14.5457249 15.1943826,12.1808746 L15.1943826,12.1808746 Z"/>
<path d="M26.6109443,18.5043149 L28.7651332,16.2972595 C29.0129759,16.0448154 29.0129759,15.6371088 28.7651332,15.3846647 L26.5981598,13.1905539 L25.69046,14.10348 L26.7835351,15.2034402 L23.8942373,15.2034402 L23.8942373,16.4979009 L26.7835351,16.4979009 L25.7032446,17.5917201 L26.6109443,18.5043149 Z"/>
<path d="M11.1608717,18.5172595 L13.3406295,16.3102041 C13.5884722,16.05776 13.5884722,15.6500534 13.3406295,15.3976093 L11.1608717,13.1905539 L10.2595642,14.10348 L11.346247,15.2034402 L8.55283293,15.2034402 L8.55283293,16.4979009 L11.346247,16.4979009 L10.2595642,17.6046647 L11.1608717,18.5172595 Z"/>
</g>
</g>
<g stroke="none" stroke-width="1" fill="none" fill-rule="evenodd" id="icon-service-events">
<g fill="url(#gradient-pink)" fill-rule="nonzero">
<rect x="0" y="0" width="48" height="48"/>
</g>
<path d="M31.2584891,38.2790698 C30.1297571,38.2790698 29.2116636,37.367814 29.2116636,36.2474884 C29.2116636,35.1271628 30.1297571,34.215907 31.2584891,34.215907 C32.3872211,34.215907 33.3053146,35.1271628 33.3053146,36.2474884 C33.3053146,37.367814 32.3872211,38.2790698 31.2584891,38.2790698 L31.2584891,38.2790698 Z M26.4152555,28.9069767 L20.5442511,28.9069767 L17.6083857,23.8604651 L20.5442511,18.8139535 L26.4152555,18.8139535 L29.3511208,23.8604651 L26.4152555,28.9069767 Z M16.4680323,13.5050233 C15.3393003,13.5050233 14.4204804,12.5937674 14.4204804,11.4734419 C14.4204804,10.3531163 15.3393003,9.44186047 16.4680323,9.44186047 C17.5960379,9.44186047 18.5148577,10.3531163 18.5148577,11.4734419 C18.5148577,12.5937674 17.5960379,13.5050233 16.4680323,13.5050233 L16.4680323,13.5050233 Z M31.2584891,32.7740465 C30.8677183,32.7740465 30.4980114,32.8526279 30.1464629,32.9701395 L27.9093364,29.2227442 L30.8190535,24.2209302 C30.948342,23.9974419 30.948342,23.7234884 30.8190535,23.5 L27.4633638,17.7325581 C27.3340753,17.5090698 27.0943832,17.372093 26.8343535,17.372093 L20.8333343,17.372093 L18.8315419,14.0190465 C19.5251964,13.383907 19.9675373,12.4820233 19.9675373,11.4734419 C19.9675373,9.55865116 18.397917,8 16.4680323,8 C14.5374211,8 12.9678009,9.55865116 12.9678009,11.4734419 C12.9678009,13.3889535 14.5374211,14.9468837 16.4680323,14.9468837 C16.8588031,14.9468837 17.22851,14.8683023 17.5800585,14.7507907 L19.4293195,17.847186 L16.1411794,23.5 C16.0111645,23.7234884 16.0111645,23.9974419 16.1411794,24.2209302 L19.4961428,29.9883721 C19.6254313,30.2118605 19.8651234,30.3488372 20.125153,30.3488372 L26.8343535,30.3488372 C26.8532384,30.3488372 26.8706705,30.3430698 26.8881027,30.3416279 L28.8949795,33.7018837 C28.201325,34.3370233 27.7589841,35.238907 27.7589841,36.2474884 C27.7589841,38.1622791 29.3286043,39.7209302 31.2584891,39.7209302 C33.1883739,39.7209302 34.7579941,38.1622791 34.7579941,36.2474884 C34.7579941,34.3319767 33.1883739,32.7740465 31.2584891,32.7740465 L31.2584891,32.7740465 Z M34.6265266,19.2724651 C33.4977946,19.2724651 32.5789748,18.3612093 32.5789748,17.2408837 C32.5789748,16.1205581 33.4977946,15.2093023 34.6265266,15.2093023 C35.7545323,15.2093023 36.6733521,16.1205581 36.6733521,17.2408837 C36.6733521,18.3612093 35.7545323,19.2724651 34.6265266,19.2724651 L34.6265266,19.2724651 Z M36.8222518,19.9234651 C37.6110568,19.2861628 38.1260317,18.3273256 38.1260317,17.2408837 C38.1260317,15.326093 36.5564114,13.7674419 34.6265266,13.7674419 C34.1667536,13.7674419 33.7302233,13.8611628 33.3285575,14.0219302 L31.3616293,11.1951628 C31.2250775,11.0005116 31.0013648,10.8837209 30.7631254,10.8837209 L24.2260674,10.8837209 L24.2260674,12.3255814 L30.3825233,12.3255814 L32.1206544,14.8243256 C31.50835,15.450093 31.1262953,16.3015116 31.1262953,17.2408837 C31.1262953,19.1563953 32.6959155,20.7143256 34.6265266,20.7143256 C34.9395791,20.7143256 35.2381047,20.6602558 35.5279143,20.5831163 L37.4352825,23.8604651 L34.6606646,28.6301395 L35.9186851,29.3510698 L38.9024889,24.2209302 C39.0325037,23.9974419 39.0325037,23.7234884 38.9024889,23.5 L36.8222518,19.9234651 Z M12.8363334,32.2492093 C11.7076014,32.2492093 10.7887816,31.3379535 10.7887816,30.2176279 C10.7887816,29.0973023 11.7076014,28.1860465 12.8363334,28.1860465 C13.9643391,28.1860465 14.8831589,29.0973023 14.8831589,30.2176279 C14.8831589,31.3379535 13.9643391,32.2492093 12.8363334,32.2492093 L12.8363334,32.2492093 Z M14.936908,32.9780698 C15.7809148,32.3436512 16.3358384,31.3480465 16.3358384,30.2176279 C16.3358384,28.3028372 14.7662182,26.744186 12.8363334,26.744186 C12.3308009,26.744186 11.8528693,26.8559302 11.4192445,27.0476977 L9.56489904,23.8604651 L12.7891213,18.3172326 L11.5311008,17.5963023 L8.09696636,23.5 C7.96767788,23.7234884 7.96767788,23.9974419 8.09696636,24.2209302 L10.2411214,27.9077674 C9.68547145,28.5234419 9.33610202,29.3272791 9.33610202,30.2176279 C9.33610202,32.1331395 10.9057223,33.6910698 12.8363334,33.6910698 C13.1014474,33.6910698 13.357119,33.6564651 13.6048009,33.6009535 L15.6385522,36.5257674 C15.7743778,36.7204186 15.9973641,36.8372093 16.2363299,36.8372093 L22.7733878,36.8372093 L22.7733878,35.3953488 L16.6183846,35.3953488 L14.936908,32.9780698 Z" fill="#FFFFFF"/>
</g>
</defs>
</g>
</svg>